<?xml version="1.0" encoding="UTF-8"?>
<svg id="Layer_1" xmlns="http://www.w3.org/2000/svg" version="1.1" viewBox="0 0 1852.52 1790.9">
  <!-- Generator: Adobe Illustrator 30.5.1, SVG Export Plug-In . SVG Version: 2.1.4 Build 3)  -->
  <defs>
    <style>
      .st0 {
        fill: #f9f7ea;
      }

      .st0, .st1, .st2, .st3, .st4, .st5, .st6, .st7, .st8, .st9, .st10, .st11, .st12, .st13, .st14, .st15, .st16, .st17, .st18, .st19, .st20, .st21, .st22, .st23, .st24, .st25, .st26 {
        stroke: #010101;
        stroke-miterlimit: 10;
        stroke-width: 3px;
      }

      .st1 {
        fill: #fcfbf0;
      }

      .st2 {
        fill: #fbf7e9;
      }

      .st3 {
        fill: #fbf6e8;
      }

      .st4 {
        fill: #fbf6e5;
      }

      .st5 {
        fill: #fbfaee;
      }

      .st6 {
        fill: #fefaf0;
      }

      .st7 {
        fill: #fbf9ef;
      }

      .st8 {
        fill: #fefef9;
      }

      .st9 {
        fill: #fff;
      }

      .st10 {
        fill: #fef9ef;
      }

      .st11 {
        fill: #fef8ec;
      }

      .st12 {
        fill: #fcf8ed;
      }

      .st13 {
        fill: #fbf8ec;
      }

      .st14 {
        fill: #fcf7e8;
      }

      .st15 {
        fill: #fbf9ed;
      }

      .st16 {
        fill: #fefaf2;
      }

      .st17 {
        fill: #fbf7ea;
      }

      .st18 {
        fill: #fffffd;
      }

      .st19 {
        fill: #fcf8ee;
      }

      .st20 {
        fill: #faf7e5;
      }

      .st21 {
        fill: #fcf7eb;
      }

      .st22 {
        fill: #fefcf4;
      }

      .st23 {
        fill: #fcfbf3;
      }

      .st24 {
        fill: #b88e43;
      }

      .st25 {
        fill: #fcfaf0;
      }

      .st26 {
        fill: #fbf6ea;
      }
    </style>
  </defs>
  <g id="Generative_Object">
    <g>
      <path class="st24" d="M194.47,1498.86c-26.12-9.4-62.43-34.08-79.11-54.99l-19.16-24.02c-5.03-6.3-10-11.79-13.48-19.32-.78-1.69-.71-7.15,2.08-6.85,17.33,1.88,33.47,1.88,51.07.4,29.48-2.48,59.26-1.13,87.73,8.21,31.92,10.47,59.98,30.22,82.26,54.72,8.36,9.19,17.19,17.39,30.03,18.24l-33.49-34.27-42.75-52.9-42.18-28.91c-5.89-2.62-11.26-7.33-17.85-7.5l-26.63-.69c-54.42-1.41-102.52-33.48-130.73-80.07-14.45-23.85-25.15-49.21-33.53-75.75-.5-1.57.72-3.46,1.37-4.14.71-.74,2.6-.84,4.11-.36l49.54,15.75c45.7,14.53,76.56,22.22,110.34,62.19,12.13,14.35,20.95,29.79,28.96,46.76,5.14,10.89,12.35,19.96,23.77,24.53l-12.94-23.74-22.78-44.69c-7.61-14.92-12.56-30.48-22.55-44.01l-24.19-32.76c-4.91-6.65-11.44-9.87-19.29-12.38-23.11-7.38-45.01-17.34-63.89-32.69-22.81-18.53-40.72-47.53-48.95-75.73-7.68-26.35-10.53-53.01-10.64-80.42l-.07-17.58c0-1.37.81-2.52,1.37-3.02.97-.86,2.86-1.06,4.23,0l49.17,38.28c21.97,15.19,41.26,33.15,56.88,54.85,8.84,12.27,14.41,25.74,19.98,39.64,6.22,15.52,9.73,30.97,11.68,47.56,1.1,9.34,4.11,17.99,11.3,24.56-5.54-17.4-8.27-33.85-11.21-51.48l-12.82-77c-2.24-13.45-9.15-25.62-14.09-37.98-8.1-20.3-32.84-29.53-51.13-49.26-9.37-10.11-16.9-21.63-23.06-33.94-10.59-21.16-14.64-58.3-11.84-82.78,2.82-24.68,6.94-48.61,15.34-71.84.57-1.59,1.85-2.8,2.8-3,1.47-.31,2.82.39,3.66,1.93l4.91,9.07,25.06,34.35,26.11,36.88c13.73,23.2,21.18,49.42,21.61,76.48l-2.75,40.86c-.49,7.31-.67,14.52,3.47,20.32.79-38.52,4.76-74.97,10.45-112.3,1.85-12.15,1.52-23.22-1.07-35.05l-4.61-21.01c-2.92-6.42-8-11.18-12.45-16.74-28.02-35.07-34.88-73.23-21.71-116.5,8.66-28.45,22.04-54.22,39.38-78.08,1.27-1.74,4.07-3.4,6.01-2.37,3.44,17.3,8.24,33.91,14.4,50.44,5.49,14.74,9.44,29.18,12.64,44.57,4.78,23.01,2.99,46.03-5.13,67.84-2.27,6.11-4.63,11.77-4.88,18.42l27.33-66.89,13.96-32.67c3.51-8.21,4.15-20.28,1.82-29.11-10.26-18.82-18.99-38.23-17.21-60.13s7.06-41.63,17.76-59.92c12.21-20.86,27.91-38.4,45.69-54.42,4.86-4.39,10.14-7.97,16.32-10.71,2.63,4.45.82,8.76.47,13.3-1.38,18.33-.29,36,.64,54.43,1.58,31.2-7.22,59.34-25.33,85.43,10.5-7.94,15.81-19.05,24.26-28.26,2.99-3.26,4.29-7.75,5.59-11.88l10.11-32.11c10.73-23.3,28.53-43.13,50.7-56.1,9.91-5.79,19.54-11.02,30.39-14.03l50.21-13.94c1.31-.36,2.4.5,2.79,1.05s.99,2.21.45,3.27l-26.79,51.4c-6.36,12.21-12.28,24.18-21.39,34.56-16.29,18.57-37.02,30.99-59.63,40.58-20.27,8.6-23.58,4.51-41.05,29.92-8.96,13.03-18.69,24.43-26.23,39.07,19.43-21.23,41.73-35.25,69.22-41.57,21.41-4.92,42.64-7.65,64.74-7.97-.12,5.36-2.29,8.02-4.62,11.11l-14.04,18.6c-10.94,14.49-20.43,29.68-33.67,41.89-40.68,37.52-74.89,29.84-93.97,39.31-30.09,14.92-38.08,45.88-47.69,75.65-8.13,25.19-14.19,50.23-18.14,76.9.51,1.78,2.33,1.21,2.37-.47,9.43-27.19,6.66-46.5,25.69-72.5,14.17-19.35,32.76-34.24,54.8-44.17,23.33-10.51,47.43-16.78,72.47-21.65,1.57-.31,3.14.97,3.82,1.53s1.54,2.57.69,3.85c-10.78,16.04-18.53,32.84-26.51,50.51-9.88,21.9-23.22,41.75-41.17,57.78-15.91,14.21-34.33,23.64-54.45,30.57-15,5.17-27.43,13.97-33.95,29.11l-8.75,20.33c-3.81,20.76-4.11,41.55-3.03,62.74,1.36,26.71,3.72,52.4,7.63,78.74.21,1.41,1.75,1.58,1.99.82,1.88-5.39,2.34-10.22,2.05-15.54l-1.66-30.41c-.08-31.66,12.11-60.59,33.53-83.9,17.69-19.25,38.9-34.25,62.36-45.86l27.34-13.54c2.49,1.34,2,5.64,1.43,8.32l-11.15,51.97-6.95,31.44c-5.94,26.9-21.65,49.11-41.97,67.68l-38.94,29.79c-5.47,4.19-8.06,10.48-9.89,16.83-5.04,17.46-5.35,34.27-1.43,52.2,9.24,42.28,24.33,82.27,44.6,120.6-.34,1.81,1.9,1.5,1.55.19-.99-11.49-4.42-21.36-8.37-31.82-9.72-25.72-12.91-52.59-6.12-79.56,5.75-22.81,16.58-43.27,31.88-61.26l44.58-43.87c1.26-1.24,3.41-1.73,4.54-1.43,1.06.28,2.65,2.01,2.82,3.71l3.89,39.23c2.33,23.5,4,46.26.82,69.54-3.56,26.1-13.26,49.17-29.44,69.65l-20.06,25.4c-2.6,3.29-4.52,7.08-4.66,11.49-.32,9.85-.75,19.84,1.8,29.42,10.31,38.73,57.53,96.58,88.92,126.03-3.16-11.58-10.34-19.93-17.46-28.7-19.18-23.62-29.12-51.88-26.85-82.67,2.87-38.89,19.34-71.02,39.06-103.88.93-1.55,3.25-2.4,4.3-2.03s2.86,1.83,3.52,3.36l26.59,61.53c20.98,48.55,14.3,87.63-5.84,134.29-4.78,11.07-.13,24.4,5.08,34.15,3.34,6.24,5.4,12.13,9.86,17.32,10.34,12.06,21.66,22.62,34.82,31.56l39.51,26.81,34.58,18.83c-5.04-9.13-12.02-15.69-20.18-21.6-45.65-33.08-60.43-78.53-51.73-134.1l10.29-45.68c.51-2.26,3.23-6.72,5.64-6.06l18.5,22.62,29.81,34.37c19.92,26.31,28.41,58.82,27.56,91.67l-2.59,32.78c-.43,5.41.33,10.49,3.35,15.14,15.63,24.07,22.77,31.7,49.72,43.41,29.36,12.76,59.49,22.13,91.42,29.15-5.38-6.47-12.79-9.07-20.32-11.67-24.21-8.37-45.54-22.35-59.78-44-12.47-18.95-19.64-40.63-21.17-63.44l-.27-43.9c0-.97,1.78-1.95,2.32-2.24.77-.4,2.15-.41,3.27.71,6.54,6.58,14.05,11.47,21.56,16.92l33.1,23.99c21.84,17.69,37.42,40.66,43.81,68.08l8.36,35.9c6.85,9,15.21,16.11,25.08,21.53,9.39,6.38,19.31,10.02,30.42,12.9,65.32,16.93,114.53,37.93,169.8,76.98,1.45,1.02,2.41,1.91,4,.34,10.81-10.64,21-21.98,29.43-34.73l-43.98-26.07-63.08-38.29-56.29-38.08-50.28-38.34c-24.35-18.57-46.75-38.09-68.39-59.6l-21.24-21.1c-32.23-35.3-63.8-70.86-90.06-111.14-54.71-83.92-85.46-170.24-100.56-269.08-6.7-43.89-7.78-86.41-8.67-130.47l.57-134.42.37-204.73c0-3.66,2.72-4.44,5.93-4.55,88.14-3.05,175.23-14.15,261.31-33.4l47.84-12.9c-39.65-2.76-77.64-8.31-116.19-16.62-13.9-3-31.47-8.43-35.3-20.54-3.33-10.53,3.26-18.8,9.27-25.93.58-13.97-2.77-30.03-6.58-43.56-9.08-2.66-17.1-8.92-15.55-20.19.86-6.28,4.51-11.65,9.41-15.15-.31-8.77-3.61-17.57-5.97-25.85l-9.35-32.8c-13.72-39.27-29.98-76.93-49.22-113.79l-25.25-43.58c-4.04-6.97-8.52-13.35-11.38-21.69,8.66-2.59,17.09-.44,25.44,1.82,26.58,7.21,53.05,23.73,61.27,50.72l14.34,1.87c8.31,1.09,16.23,5.75,20.16,13.61,5.27,10.54,2.41,23.22-4.33,32.34-4.77,6.45-4.12,13.69-2.45,21.08,5.98,26.58,21.54,49.37,47.42,57.99,14.19-12.52,14.06-40.24,21.33-42.57,3.44-1.1,7.29-.87,9.97,1.49l26.29,23.08c15.48-13.12,22.14-40.84,19.19-60.44-2.33-15.49-17.47-11.97-21.81-24.57-2.24-6.49-1.52-12.94,3.01-17.58l7.14-7.32c-.26-18.14,5.4-38.77,18.4-50.91,3.42-3.19,6.9-3.19,10.92-1.13,16.76,8.62,25.96,26.28,29.48,43.67,8,4.45,16.12,10.7,16,21.58-.2,18.83-20.35,14.45-17.44,33.57,3.17,20.83,13.16,40.36,32.72,50.15,12.87,6.44,28.93,7,42.59,2.51,33.55-11.02,49.58-54.26,35.52-83.11l-16.34-26.62c-8.29-13.51,11.12-20.52,24.7-25.94,9.62-3.84,13.34-13.61,12.64-23.12-1.73-23.44-19.58-24.2-23.69-35.33-6.36-17.21,4.9-32.29,20.29-38.45,3.11-14.17,6.48-29.53,15.01-41.86l21.75-31.45,20.17,29.57c8.26,13.53,13.32,27.84,16.99,43.28,11.78,4.78,19.59,14.5,21.15,26.79,1.06,9.67-3.66,18.31-11.89,23.13-7.25,4.25-10.79,10.82-12.62,19.1-2.23,10.12.25,22.87,10.55,27.62,8.55,3.94,17.99,5.78,24.65,12.65,4,4.12,4.65,9.09,1.71,13.87l-15.13,24.54c-13.2,21.41-5.43,53.28,10.55,70.52,22.56,24.33,60.89,24.47,82.58-.75,9.48-11.02,14.11-25.24,15.39-39.51s-14.27-14.74-16.27-29.41c-1.57-11.52,7.93-18.41,15.51-23.53,3.92-17.88,14.48-36.6,32.36-44.68,3.62-1.63,6.89,1.36,9.32,3.89,12.04,12.54,17.24,29.47,17.23,46.96,0,5.04,13.66,10.05,11.25,23.59-1.1,6.2-5.42,12.78-12.52,14.95-5.64,1.72-9.34,5.61-10.53,12.05-6.37,34.24,17.23,63.33,19.82,60.64l1.9-1.97,25.46-21.14c2.1-1.74,6.26-1.35,8.74-.51,5.76,1.95,6.03,22.01,17.07,38.5,1.03,1.54,2.48,2.88,3.58,3.22,1.55.47,3.48-.11,5.04-.97l10.65-5.84c16.76-12.01,28-30.11,32.35-50.23,2.01-9.29-.32-17.35-5.43-24.83-3.7-5.42-4.87-12.78-4.74-19.25.36-18.31,19.76-23.5,37.74-24.65,6.1-23.07,27.49-39.28,49.37-46.59,16.79-5.61,42.1-12.62,34.63-.29-19.95,32.91-39.42,65.35-55.19,100.67l-28.95,73.73-14.68,57.38c6.05,4.42,9.18,10.56,9.55,17.71.48,9.41-6.26,14.98-14.17,16.75-4.44,11.9-10.09,42.33-5.37,47.37,6.91,7.38,10.6,21.08,3.23,29.1-6.74,7.33-16.2,11.27-25.51,13.22l-47.31,9.88-2.08.21-67.61,7.3c-1.92-1.77-4.2.88-1.81,1.15l57.1,14.82c49.29,10.44,97.93,18.84,148.12,24.04l102.18,7.24c1.33.09,3.65,1.26,3.65,2.86l.26,53.25.41,110.14-.03,198.83c0,32.76-2.59,63.49-6.32,95.83-8.25,71.63-30.14,147.36-62.16,211.94-15.04,30.33-31.31,58.93-50.85,86.62l-45.99,57.77c-4.13,5.22,11.3.45,18.26,4.27,8.74,4.79,8.81,18.7,2.04,25.03-2.96,2.77-6.74,2.25-10.25,2.72l-40.36,5.49c-10.36,6.15-19.02,15.87-28.05,24.25-35.44,32.92-72.11,62.79-111.23,91.39l-64.17,43.08-62.22,37.93-37.9,21.72c-5.33,3.06,5.94,14.79,13.71,22.54l13.49,13.46c.39.39,1.95,1.23,2.63.75,23.93-16.95,48.77-30.85,75.35-43.61,29.41-14.12,59.27-24.37,90.94-32.41,23.4-5.94,44.38-17.22,60.05-35.72l5.08-25.14c6.03-29.82,20.97-56.32,44.16-75.82l32.97-24.31,24.02-17.71c1.26-.93,6.03-3.75,6.36-1.47,2.22,36.45-.43,76.48-20.77,107.03-12.51,18.79-30.17,33.41-50.51,42.65l-1.87.52-1.63.75c-7.65,3.53-15.36,5.74-22.84,9.75l-2.72,1.46c-2.07,1.79.8,3.26,2.15,1.49l39.77-10.35c23.13-6.02,44.66-14.91,65.4-26.6,8.21-4.63,14.27-9.99,19.89-17.7s14.1-15.96,15-26.44l-2.09-30.26c-1.85-26.74,2.05-52.02,13.89-75.89,4.16-8.38,7.59-16.57,13.71-23.75l28.37-33.28,18.92-23.16c.41-.32,1.55-.57,2.2-.44,2.79.52,4.08,3.33,4.7,5.93l6.1,25.41c7.29,30.35,8.7,61.25-.34,91.15l-.72,1.81-.65,1.75c-7.66,20.67-20.83,37.86-37.63,52.02l-1.37,1.01-1.29,1.04-1.22,1.12-16.99,14.48-1.14,1.14-7.75,9.87c-.34.44-.92,1.1-.85,1.62.08.57.88.76,1.62-.06,32.6-17.95,63.03-38.02,91.52-61.91,13.81-11.58,24.38-24.44,31.1-41.4,3.03-7.64,5.29-18.33,2.11-26.31-5.41-13.58-11.6-25.69-15-39.93-9.35-39.25-3.7-71.35,14.31-106.94l21.29-50.85c.52-1.25,1.7-2.19,2.44-2.32.98-.17,3.26.41,4.15,1.77,35.22,53.96,58.94,118.06,19.84,175.84l-12.87,17.57c-3.89,5.31-8.54,10.19-10.09,16.69l-.45,1.91-.33,2.2c-1.73.58-.73,3.03.47,2.05l22.36-25.06c20.28-22.73,38.33-46.61,53.87-72.88,4.67-7.9,9.61-15.45,11.85-24.4,3.11-12.41,3.72-26.27.89-38.73-1.41-6.22-7.6-10.79-11.11-15.6l-23.63-32.38c-21-35.46-22.46-73.09-18.25-113.42l5.17-49.43c.14-1.29,2.04-2.92,2.97-3.03,3.02-.34,4.4,1.44,6.21,3.21l40.01,39.07c13.09,15.16,23.11,31.83,30.06,50.39l.55,1.92c6.44,22.57,10.63,46.16,3.97,68.72l-.57,1.95-.48,1.83-.5,1.78-.51,1.79-.52,1.83-.52,1.84-.57,1.83c-4.34,14.05-10.75,26.74-11.75,41.95-1.74,1.59,1.18,3.14,1,1.06,22.25-41.25,38.1-84.18,47.35-129.8,2.97-14.65,1.93-28.17-2.25-42.4-1.71-5.82-2.86-13.5-8.12-17.34-40.06-29.2-70.95-52.81-83.61-104.19l-6.56-33.01-8.41-42.85c-.59-3.03-.92-6.23-.02-9.21.58-1.91,2.66-1.64,4.21-.85l37.84,19.38c20.82,10.66,49.38,37.71,62.22,58.87,15.11,24.91,19.32,53.24,16.87,82.15-1.76,20.77,1.06,33.42,2.3,27.36l.86-4.21,5.01-44.14c3.54-31.17,3.63-61.74.03-92.66l-17.21-38.06c-2.43-4.07-6.22-6.5-10.61-8.13l-22.97-8.51c-18.29-6.78-34.26-16.46-47.7-30.24l-12.77-13.09c-11.24-11.52-18.09-26.23-25.56-40.78l-26.1-50.81c-.45-.87-.49-2.01-.47-2.57.03-.98.74-1.81,2.48-1.95l2.31-.18c6.25-.49,11.62,1.35,17.61,2.64,33.5,7.2,71.84,20.56,94.69,46.32l1.11,1.25c17.45,16.36,26.76,37.75,30.55,61.37l4.19,20.35.6,1.71,2.22,6.15c.73,2.02,2.02,1.57,1.98.93l-.25-3.82-11.99-56.85c-4.3-20.41-11.37-39.36-19.65-58.33-9.34-21.41-26.86-38.64-50.24-42.21-40.53-6.19-58.24-18.96-87.39-46.39l-1.07-1.31-19.49-25.93-13.93-19.95c-4.01-5.73-11.64-14.94-5.97-14.95h2.3s2.52-.32,2.52-.32c34.48,1.11,69.5,9.01,98.82,26.69l1.42,1.46,1.32.98,1.34.99,1.35.98,1.32,1.01,1.3,1.04,1.33,1.01,1.33.99,1.26,1.06,1.19,1.14,1.16,1.17,1.17,1.16,1.16,1.14,6.31,6.6,1.21,1.11c.41.38.92.68,1.13,1.18.52,1.31,2.15.79,1.99-.52l-41.17-56c-5.92-4.71-14.77-6.78-21.97-9.37-24.7-8.9-44.58-23.68-61.23-43.74-8.85-10.66-14.95-22.24-20.96-35.03l-23.44-49.87c-.78-1.65-.71-4.16-.45-5.52.62-3.24,9.86-2.87,15.76-.49l48.92,19.76c17.12,6.92,31.01,17.77,43.56,31.11,31.3,33.26,27.48,66.88,36,78.22l24.58,32.76c.02,1.97,2.51,2.59,2.23.62l-17.27-32.46c-7.22-18.17-9.79-37.17-9.2-56.98l1.85-62.91c.06-2.1,1.52-3.55,2.62-2.94l4.02,2.24,12.11,10.3c35.43,30.14,62.57,73.68,60.04,121.33-.86,16.13-6.13,30.83-13.69,44.63-5.4,9.88-4.79,29.2-2.08,35.69l11.61,27.81,6.51,14.64,21.59,54.07c-.09,1.25,1.54,1.22,1.53-.04l-9.33-30.79c-7.26-23.95.18-63.78,9.75-88.6,6.96-18.03,13.27-35.51,16.08-54.84.24-1.66.97-3.68,1.89-4.61,1.12-1.14,3.97-.69,5.13,1.25l18.68,31.25,14.7,32.09c10.38,22.66,13.73,47.14,11.3,72.33-4.41,45.78-38.45,69.43-40.39,80.25l-5.67,31.69c-.93,5.21-.68,10.85,0,16.08l6.9,52.54,4.29,64.6c4.14-7.51,3.75-14.68,3-21.97-1.74-16.99-3-33.49-1.43-50.89,2.76-30.73,15.46-58.91,33.99-83.23l22.22-29.17c7.56-9.92,14.95-19.43,20.39-30.77.48-.99,3.09-2.55,4.71-1.73,1.03.52,1.73,1.54,2.18,3.01,8.57,27.42,13.81,54.87,15.58,83.72l-1.7,25.73c-2.18,32.95-16.5,63.55-40.96,85.63l-25.3,20.31c-7.96,6.39-14.59,13.86-18.7,23.33-5.63,12.95-12.05,25.79-14.5,40.04l-12.85,74.66-11.12,48.81c-.73,3.19.82,2.41,3.78-2.21l1.03-1.6.86-1.49c7.03-12.18,4.89-46.13,31.03-93.53l13.43-19.39,30.15-31.53,1.51-.87,26.4-20.2,1.3-1.02,17.95-13.53,22.28-17.52c7.04-5.54,4.88,16.96,4.63,30.08-.45,22.69-2.91,44.28-8.71,66.29-13.27,50.41-46.65,87.74-95.47,105.96l-19.59,7.31c-7.19,2.68-13.8,5.72-17.8,12.6l-1.45.94c-14.65,18.74-28.77,37.2-38.56,59.16-11.22,25.18-22.19,49.3-37.16,72.42l-4.39,8.6-.84,1.87c-.23.52-.1,1.22.31,1.26.37.03,1.07-.63,1.76-.97,9.4-4.51,15.63-12.18,20.19-21.78,11.91-25.12,26.99-47.5,47.97-66.13,14.91-13.25,31.77-22.63,50.32-30.13l50.22-16.05,39.54-13.06c2.12-.7,4.59-1.59,6.32-.12,1.28,1.08,1.38,3.87.69,6.09-7.58,24.2-17.58,46.64-30.45,68.5-12.31,20.9-27.46,38.85-46.38,53.85l-16.21,10.78c-41.27,27.45-87.08,17.56-101.65,22.82-11.97,4.32-21.98,11.06-32.51,17.71l-1.45.91-1.33.95-1.31,1.03c-9.32,7.31-19.45,12.86-25.96,22.93l-1.14,1.23-21.6,27.4-45.04,48.09c-.41.44-1.96,1.88-1.58,2.18.59.47,1.74.12,2.17-.04l2.53-.91c9.67-3.48,16.31-9.59,23.31-16.88,51.07-53.2,102.13-69.32,175.71-63.64,16.04,1.24,31.47.46,47.5-.66,3.01,2.81,1.45,8.69-.92,11.75l-26.98,34.74c-11.29,14.54-24.07,26.23-39.35,36.51-18.25,12.28-36.93,22.35-58.68,27.57-29.23,7.02-59.17,5-87.69-3.94-17.51-5.49-34.63-4.37-51.42,2.29-25.76,10.21-48.94,23.14-71.41,39.33l-48.41,30.99c-2.4-.63-2.09,1.76-1.4,1.71l3.87-.31c10.39-.83,18.49-5.03,26.9-10.71,34.95-23.58,77.37-33.57,119.01-25.69,19.97,3.78,37.67,10.97,56.25,18.52l38.84,13.44c2.05.71,2.88,3.37,2.76,4.87-.17,2.12-1.95,3.57-3.93,4.89l-33.65,22.43c-22.25,14.83-46.91,24.25-73.35,29.07-18.78,3.43-36.77,2.53-55.25-1.33-40.73-8.52-57.24-29.9-72.66-32.08-22.83-3.23-45.27,1.34-67.4,5.59l-1.91.78-49.39,17.07-1.85.47-26.8,7.05-2.18.79c-2.49-.53-2.83,2.67-.19,1.9,7.26.58,13.45-1.24,19.9-2.72l39.89-9.11c23.06-3.19,45.55.13,66.93,9.05,17.73,7.4,33.74,16.38,49.03,27.94l36.67,23.73c2.04,1.32,3,4.45,1.91,5.76-1.26,1.51-3.46,2.44-5.52,3.21l-44.18,16.58c-15.02,5.64-30.41,6.17-46.41,6.38-19.4.26-37-3.16-54.59-11.01-12.98-5.79-24.95-12.03-35.29-21.95l-23.74-22.77c-8.07-7.74-19.77-9.98-31.04-10.89-21.76-1.77-42.5,2.67-63.9,6.92-27.63,5.48-53.28,13.46-79.16,24.65l-58.47,30.06-1.89.95c-.65.33-.88,1.25.27,1.89l39.34,22.28c24.92,14.11,52.13,6.09,48.96,20.39-1.96,8.84-9.5,14.85-18.39,16.86-13.6,3.07-26.36-1.02-39.01-6.72-20.69-9.32-40.04-19.67-59.37-31.49-2-1.22-4.27-1.26-5.83.37l-22.26,23.14c-16.45,17.1-18.65,36.15-30.7,34.93-4.13-.42-6.47-3.49-8.67-7.44-10.39-18.71-24.45-34.79-39.7-49.7-1.52-1.49-3.83-2.43-5.34-2.25-1.65.2-3.3,1.59-5.05,2.62l-33.77,19.86-28.3,12.55c-20.01,8.88-45.97,7.51-51.23-13.07-1-3.9,1.44-7.76,5.54-8.31,17.85-2.42,34.52-7.25,50.38-15.82l31.1-16.79c.74-.4,2.46-.86,2.42-1.75l-18.81-11.61c-18.66-11.52-37.84-19.95-58.3-27.9-21.78-8.47-43.67-13.27-66.48-18.68-21.34-5.05-42.36-8.05-64.07-5.56-16.21,1.86-28.99,9.1-39.59,21.15-13.33,15.15-28.92,26.24-47.34,34.22-10.66,4.62-20.69,8.42-32.46,9.79-42.6,4.96-79.26-5.93-117.21-24.19-1.25-.6-1.04-5.48.07-6.08,13.88-7.53,26.65-16,39.53-25.49,37.83-27.87,80.39-45.18,127.41-33.3l37.27,9.41c2.87.73,5.19.89,9.29-.32.05-1.64-3.51-2.7-5.82-3.18-25.87-5.4-49.15-15.1-73.86-23.75-17-5.95-64.38-10.89-73.94-5.4l-26.73,15.36c-25.45,14.62-54.41,20.78-84.16,18.23-32.41-2.78-61.71-15.02-88.99-31.83l-32.97-22c-1.78-1.19-2.2-3.82-1.49-5.82.47-1.34,2.31-2.75,4.46-3.51l50.64-18.04c19.51-6.95,38.17-13.94,59.2-15.57,38.52-2.99,75.44,8.86,106.68,30.75,10.38,7.27,27.91,9.85,29.38,8.48.43-.4-2.05-.94-2.61-1.29l-50.25-31.42c-24.9-17.56-50.57-33.06-79.69-42.22-16-5.03-31.91-3.75-47.43,1.33-32.71,10.71-66.83,9.65-99.07-1.95Z"/>
      <g>
        <g>
          <g>
            <path class="st9" d="M818.07,665.14c-46.96,12.62-90.68,35.8-126.51,68.11-30.32,27.33-52.7,60.07-67.8,97.91-28.2,70.67-26.61,148.26,7.61,216.55,10.57,21.1,22.56,39.69,38.8,57.13,25.88,28.74,57.62,51.63,93.12,67.43,21.66,9.64,43.35,16.15,66.26,22.49l-.39,137.74c-.04,14.49-2.13,28.06-6.11,41.49-5.87,19.82-23.31,24.24-43.63,27.6-9.11,1.51-10.44,11.59-8.48,22.04.85,4.51,4.79,8.45,10.18,8.45l185.92.07c9.79,0,11.58-11.83,9.71-23.11-2.34-14.1-18.51-7.36-35.44-15.06-18.11-8.24-20.84-35.62-20.96-56.37l-.73-128.31,29.47,3.26c10.59,1.17,17.81,7.37,24.56,15.24l9.16,10.68,37.98,57.5,29.33,45.28c11.32,17.48,23.39,33.44,37.47,48.69,13.58,14.71,28.34,25.94,47.38,35.48l-24.13,21.12c-39.73,34.77-83.01,64.39-128.56,91.34l-57.04,33.75-30.79-17.87c-57.4-33.32-111.54-70.7-162.59-113.37-38.64-32.3-73.39-67.98-105.08-106.9l-37.1-52.9c-14.69-20.95-25.3-42.86-36.64-65.97-24.82-50.54-40.36-104.02-48.78-159.78-5.29-35.06-8.02-68.6-8.29-104l-.63-82.88.02-210.58,34.95-2.53,78.01-10.57c45.49-6.16,89.02-16.35,133.42-28.62,54.51-15.07,106.6-35.02,157.71-58.81l24.65-13.09,17.34,8.91c44.7,21.42,90.01,39.77,137.69,54.23l102.41,25.95c49.71,10.44,98.8,18.03,149.24,23.28l22.37,1.22.38,235.01.04,50.49c.07,96.86-16.45,191.61-59.72,278.55-20.57,41.33-44.24,79.79-73.42,115.3l-28.36,32.87-44.32-52.49-36.76-47.24-45.95-59.97c-1.97-2.58-4.79-3.8-6.07-8.04,37.7-9.57,72.71-27.92,101.44-54.18,26.34-24.08,42.17-54.92,46.44-90.28,4.57-37.85-5.27-75.83-30.11-104.89l-14.11-13.97c-46.42-38.47-101.94-49.5-161.46-50.99l-27.04-.67c-63.11,2.13-125.3,2.15-188.45.99-5.17-.1-11.76.39-14.73,4.04-3.69,4.52-2.09,11.63-2.11,16.92-.03,5.93,3.22,9.54,8.63,10.61l21.28,4.21c11.52,2.28,20.25,10.69,23.57,21.91,4.4,14.85,6.93,29.41,6.93,45.2v146.93s-32.87-24.02-32.87-24.02c-46.34-43.93-73.54-103.2-77.79-166.88l-.02-48.99c2.18-29.46,10-56.63,22.71-83.29,20.99-44.03,55.51-80.24,100.94-99.32,26.97-11.33,56.21-15.75,85.35-15.8,13.95-.02,26.61,2.84,40.05,5.48,34.32,6.72,65.41,23.54,89.01,49.5,12.81,14.1,21.82,30.85,28.21,48.59,2.98,8.27,8.43,13.06,17.09,11.9,8.46-1.13,13.19-7.58,13.18-16.84l-.09-107.78c0-7.43-5.79-8.29-11.45-9.57l-83.74-18.94c-66.98-15.15-135.47-14.34-201.75,3.48Z"/>
            <path class="st9" d="M1060.41,1132.58c-37.95,31.28-93.84,39.52-140.73,28.81l.09-225.43c63.68-4.11,118.94-5.68,161.46,46.63,32.51,47.66,23.87,113.16-20.81,149.99Z"/>
            <path class="st8" d="M473.3,929.04l1.37,54.57c1.63,65.29,19.98,152.29,45.16,213.34,50.92,123.45,139.86,219.23,245.59,298.29l63.42,44.08,95.98,57.14,93.14-55.34c37.35-24.03,72.61-49.04,106.59-77.48l35.47-29.91c2.61.88,5.03,1.65,7.86,3.56-35.1,31.68-71.58,61.15-110.94,87.96-42.73,29.11-86.54,55.34-131.63,80.84-40.2-21.85-78.59-44.94-116.67-70.1-50.31-33.25-96.95-70.63-140.53-112.22-128.97-125.35-194.11-263.85-202.49-444.26l-1.24-41.57.23-154.92.32-153.96c37.24-1.8,73.02-6.28,109.63-11.3,28.03-3.85,54.36-7.7,81.92-14.02,51.71-9.37,101.03-23.83,150.41-41.58,25.95-9.33,50.46-18.58,74.72-31.33l42.87-22.52c56.34,32.14,115.82,54.63,177.83,73.42,57.41,15.95,114.61,27.86,173.72,36.06,36.53,5.06,71.97,9.42,108.54,10.94l.13,284.68-4.64,114.44c-5.28,55.05-18.25,107.78-37.57,159.4-12.13,32.41-27.06,62.18-44.65,91.75-12.26,20.62-24.66,39.65-39.32,58.63-13.32,17.24-26.12,33.87-41.56,49.69-1.62,1.66-3.9-.99-4.88-2.28-1.56-2.04-.15-3.86,1.69-6.05,19.2-22.81,38.08-44.8,54.91-69.77,26.16-38.81,48.49-79.54,65.28-123.44,24.74-64.65,37.54-132.15,40.82-201.17l1.05-101.96-.13-245.48c-57.93-3.33-113.45-10.96-169.51-21.75l-104.9-24.63-57.96-19.05c-41.51-13.64-80.57-31.84-118.96-53.21l-51.17,26.04c-79.13,35.78-162.33,59.79-248.12,74.56-50.09,8.63-99.44,15.31-151.4,18.17l-.35,291.72Z"/>
          </g>
          <g>
            <path class="st18" d="M957.71,458.4l-77.78.48-28.12,1.02c-56.9,2.06-112.56,6.33-168.76,15.37-21.34,3.43-41.18,7.3-61.74,12.95-11.73,3.22-21.92,8.01-32.61,14.63-2.48-5.22-2.16-12.56,2.03-16.02,17.88-14.72,65.69-25.15,91.77-29.41,79.59-13,183.32-18.58,264.3-17.52,64.33.84,127.41,4.23,191.08,12.78,35.19,4.73,89.1,14.25,117.34,31.94,5.45,3.41,8.48,9.75,6.43,16.06-.48,1.03-3.75.63-4.93,0-14.72-8.03-29.68-13.17-46.14-16.96-84.85-19.57-165.53-23.1-252.87-25.33Z"/>
            <path class="st18" d="M1173.93,392.74c-68.15-12.45-135.28-17.12-203.7-18.31h-88.57c-64.13,1.35-127.02,5.78-190.49,15.79-38.86,6.13-75.43,15.91-111.6,31.07-3.19-2.45-3.8-5.03-3.39-7.99,1.12-8,23.35-17.57,34.69-20.52l57.36-14.88c66.6-12.29,132.96-18.61,200.64-20.78l109.87-.07c63.69,1.83,126.08,7.17,188.81,18.23,28.46,5.02,79.63,16.52,100.74,30.96,4.35,2.97,6.51,8.99,3.33,13.47-1.14,1.19-5.19.2-6.96-.52-29.38-12.07-58.63-20.58-90.74-26.45Z"/>
          </g>
        </g>
        <g>
          <path class="st19" d="M1587.22,1473.82c-17.97,4.63-34.87,9.43-52.57,11.67l101.88-33.08,96.85-35.02c-46.12,25.22-95.27,43.31-146.16,56.43Z"/>
          <path class="st21" d="M1723.88,1297.15c-24.92,15.29-47.84,31.95-76.05,44.01,54.96-36.67,108.94-74.61,162.05-115.57-26.37,26.99-55.81,49.29-86,71.56Z"/>
          <path class="st10" d="M1717.63,1170.44l28.25-36.73c31.93-38.59,59.09-79.47,84.96-122.45-21.36,50-52.34,94.25-88.44,134.11l-23.25,25.32c-.62.69-1.26.21-1.51-.25Z"/>
          <path class="st16" d="M1481.32,1590.93c-28.09.41-54.78-.28-83.04-3.27l85.33-3.01,99.32-3.08c-33.45,6.55-67.08,8.85-101.61,9.36Z"/>
          <path class="st12" d="M1735.29,985.84l37.49-95.43,23.22-80.71c-4.14,46.97-18.41,91.25-37.46,133.76-7.72,14.44-12.49,29.13-23.25,42.39Z"/>
          <path class="st1" d="M1608.52,1258.5l-21.18-93.09-19.68-71.58c22.15,47.07,34.49,97.85,41.09,149.23l-.24,15.45Z"/>
          <path class="st23" d="M1704.48,814.79l8.64-91.12-.62-76.25c11.55,54.05,7.97,113.35-8.02,167.37Z"/>
          <path class="st12" d="M1359.8,1520.59l34.59-90.24,19.12-62.57c-5.24,45.54-19.58,88.12-38.75,128.89-5.55,7.98-7.63,16.61-14.96,23.92Z"/>
          <path class="st0" d="M1665.26,1075.39l-40.81-76.44-36.64-63.21c5.55,2.38,6.01,7.97,10.71,11.31,27.15,39.36,51.41,81.02,66.73,128.34Z"/>
          <path class="st25" d="M1516.8,1289.39c.68,44.64-3.24,88.36-16.71,130.14,8.16-56.25,13.54-111.3,13.96-168.01,1.55,1.32,1.66,3.79,2.26,5.86l.49,32.01Z"/>
          <path class="st19" d="M1417.45,1682.57c-33.03-1.15-64.17-7.23-95.86-14.84l-71.36-22.09,89.38,20.17,77.85,16.76Z"/>
          <path class="st3" d="M1663.4,882.5l-57.85-61.71-49.81-48.44c17.75,11.25,32.1,25.12,48.07,38.6,22.61,21.43,43.84,43.88,59.59,71.56Z"/>
          <path class="st12" d="M1633.03,640.2c.34,4.69,2.57,8.98-.33,12.69-3.41-29.98-9.25-57.75-16.21-86.44l-16.35-56.49c12.28,22.37,19.96,46.43,25.58,71.31,4.41,19.48,5.84,38.46,7.3,58.92Z"/>
          <path class="st19" d="M1559.22,591.82l-51.65-53.98-18.86-19.81-26.12-26.64c15.11,9.52,27.13,21.71,40.33,33.42l20.24,20.63c12.17,15.21,25.6,28.6,36.05,46.39Z"/>
          <path class="st13" d="M1203.4,1587.27l48.05-64.38,31.89-47.85c-10.4,25.39-25.06,47.32-40.32,69.6-12.48,15.12-24.28,29.8-39.62,42.63Z"/>
          <path class="st4" d="M1618.92,719.98l-68.91-48.7-39.67-28.68c40.07,20.14,77.1,45.63,108.58,77.38Z"/>
        </g>
        <g>
          <path class="st19" d="M312.75,1485.6c-34.77-5.9-66.77-15.98-100-25.99-33.38-12.01-65.73-24.8-96.55-42.39l92.34,33.61,104.22,34.77Z"/>
          <path class="st25" d="M382.28,1585.15l67.54.99c.89.01,2.1-.05,2.26.37.14.38-.74,1.47-1.5,1.54-62.62,6.04-125.48,3.87-187.39-6.36l74.75,2.18,44.33,1.27Z"/>
          <path class="st11" d="M202.79,1342.34c-21.53-9-40.1-22.14-60.37-34.01-36.96-24.37-71.85-50.6-102.88-82.66,31.58,23.67,61.38,47.55,94.02,69.39l69.24,47.28Z"/>
          <path class="st6" d="M132.23,1173.25l-29.77-32.52c-34.18-37.34-63-79.63-82.51-125.97,19.42,32.25,38.23,61.77,60.86,90.67l52.88,67.51c-.22,1-1.17.58-1.47.31Z"/>
          <path class="st15" d="M113.02,984.46c-17.63-26.75-29.78-56.66-40.65-87.33-8.82-27.25-17-53.88-18.59-82.98,8.24,32.25,16.72,63.47,29.2,94.51l30.05,75.79Z"/>
          <path class="st5" d="M239.39,1262.13c.8-37.51,9.99-73.41,19.43-109.39,6.45-18.68,11.24-37.1,21.2-54.06-16.62,54.46-28.94,107.77-40.63,163.45Z"/>
          <path class="st17" d="M182.84,1078.13c17.72-52.66,44.86-102,80.94-144.2-29.18,48.07-56.2,94.54-80.94,144.2Z"/>
          <path class="st15" d="M489.57,1523.43c-18.32-27.93-30.19-58.32-39.78-90-5.55-20.44-12.04-39.52-13.69-60.94l18.12,55.46c10.14,32.69,22.49,63.2,35.36,95.48Z"/>
          <path class="st22" d="M136.5,723.05c.26,30.83,4.58,59.14,7.64,89.49-11.95-39.21-15.1-80.38-12.67-121.42.88-14.91,1.71-28.63,5.31-42.34,1.64,3.79-.36,7.03-.35,10.61l.08,63.66Z"/>
          <path class="st7" d="M518.56,1669.74c-28.11,8.34-56.84,11.35-86.41,12.93l78.54-17.17,85.16-18.68-77.28,22.92Z"/>
          <path class="st25" d="M347.19,1415.75c-9.22-26.14-11.63-54.1-14.41-82.37-1.03-27.58-1.36-54.16,1.03-81.97l3.63,62.61c1.69,34.06,5.57,66.41,9.75,101.73Z"/>
          <path class="st20" d="M219.44,847.96l-35.23,37.75c28.47-43.94,66.3-80,109.37-111.32-4.82,7.04-11.73,10.83-17.6,16.73l-56.54,56.84Z"/>
          <path class="st12" d="M217.08,644.48c.4-45.49,11.78-90.19,31.25-131.08-12.48,44-22.49,86.29-31.25,131.08Z"/>
          <path class="st14" d="M306.02,580.2c-5.48,5.53-8.61,11.69-15.4,15.22,26.52-36.79,58.51-69.98,96.62-94.96-6.83,8.14-14.62,13.62-22,20.95l-59.21,58.79Z"/>
          <path class="st2" d="M299.68,675.5l-66.91,45.32c18.39-19.37,39.49-32.77,60.17-48.09,16.76-10.01,32.65-19.85,51.1-27.28l-44.35,30.05Z"/>
          <path class="st26" d="M645.03,1587.56c-15.88-13.87-29.27-30-42.47-47.07-12.77-19.55-25.24-38.64-33.79-60.85,19.42,29.62,37.8,58.65,59.67,86.17l16.59,21.76Z"/>
        </g>
      </g>
    </g>
  </g>
</svg>