<?xml version="1.0" encoding="UTF-8"?>
<!-- Generator: visioncortex VTracer 0.6.12 -->
<svg fill="#A77C36" version="1.1" xmlns="http://www.w3.org/2000/svg" width="1254" height="1254" viewBox="0 0 2508 2508">
<path d="M0 0 C15.69 7.09 25.28 29.54 32.02 44.36 C33.35 48.54 34.4 52.62 35.24 56.92 C36.64 63.09 38.59 67.46 43.33 71.68 C49.62 77.64 54.7 84.65 55.46 93.43 C54.7 103.65 48.76 108.98 41.41 115.39 C39.59 116.89 37.69 118.31 35.77 119.68 C30.22 125.1 27.53 131.92 25.96 139.43 C26.08 149.08 28.57 156.18 35.02 163.36 C40.75 168.14 46.16 170.86 53.14 173.43 C64.47 177.59 64.47 177.59 69.02 182.36 C70.01 188.61 69.46 191.58 66.33 197.11 C59.17 206.31 59.17 206.31 55.64 209.55 C44.87 221.1 42.73 233.01 42.87 248.36 C43.51 265.48 51.61 282.7 63.02 295.36 C71 301.99 79.19 307.05 89.02 310.36 C90.75 310.96 92.48 311.56 94.27 312.18 C111.48 315.73 126.18 312.38 141.02 303.36 C153.44 294.31 161.05 277.59 167.91 264.28 C170.02 260.36 170.02 260.36 172.26 257.16 C174.98 252.84 174.52 249.34 174.02 244.36 C171.95 239.84 168.53 236.87 165.02 233.43 C158.46 226.95 155.15 221.85 155.02 212.36 C156.72 207.17 159.63 204.52 164.02 201.36 C165.67 200.7 167.32 200.04 169.02 199.36 C169.95 195.84 169.95 195.84 170.46 191.43 C172.72 176.65 179.78 167.41 191.62 158.38 C197.27 154.52 201.17 152.78 208.02 153.36 C218.33 159.12 224.7 171.32 228.02 182.36 C229.05 188.45 229.15 193.29 227.77 199.24 C227.02 204.36 227.02 204.36 228.96 207.18 C229.97 207.9 230.98 208.62 232.02 209.36 C240.68 216.56 240.68 216.56 241.52 223.55 C240.72 231.26 237.02 235.63 231.27 240.61 C227.02 243.36 227.02 243.36 221.71 245.55 C217.02 248.36 217.02 248.36 214.89 253.18 C210.79 275.02 216.75 296.84 229.09 314.97 C232.06 318.66 234.25 320.25 238.96 320.93 C243.02 320.36 243.02 320.36 245.71 317.77 C246.47 316.62 247.23 315.48 248.02 314.3 C253.11 307.13 258.53 300.5 267.02 297.36 C273.02 297.36 273.02 297.36 276.07 298.99 C280.54 304.11 282.13 309.97 284.21 316.36 C285.05 318.89 285.9 321.41 286.75 323.93 C286.93 324.48 286.93 324.48 287.86 327.3 C289.43 331.45 290.97 334.66 294.71 337.18 C299.88 339.03 304.09 338.83 309.39 337.55 C322.35 329.73 329.35 314.83 336.27 301.93 C336.79 300.97 337.31 300.02 337.85 299.04 C340.48 294.03 342.42 289.35 343.72 283.82 C345.03 278.3 345.81 276.83 350.02 273.36 C353.66 267.3 353.18 265.21 352.02 258.36 C351 255.12 349.87 251.91 348.64 248.74 C348.04 247.16 347.43 245.58 346.81 243.95 C346.22 242.44 345.63 240.92 345.02 239.36 C344.53 237.93 344.05 236.5 343.54 235.03 C342.02 231.36 342.02 231.36 338.02 227.36 C338.35 222.57 340.6 220.75 343.89 217.24 C350.92 211.35 358.72 209.6 367.64 208.49 C369.42 208.12 371.19 207.75 373.02 207.36 C374.39 204.86 374.39 204.86 375.02 201.36 C378.62 194.7 382.59 189.3 387.77 183.79 C390.02 181.36 390.02 181.36 392.29 178.41 C403.74 165.61 420.67 160.04 436.77 155.99 C437.31 155.85 437.31 155.85 440.04 155.15 C445.99 153.74 451.03 152.84 457.02 154.36 C459.02 157.36 459.02 157.36 459.05 160.34 C457.59 166.05 454.62 170.7 451.58 175.68 C450.29 177.84 449 180.01 447.71 182.17 C447.39 182.7 447.39 182.7 445.79 185.38 C441.69 192.28 437.86 199.32 434.02 206.36 C433.49 207.32 432.97 208.29 432.43 209.28 C358.02 345.52 358.02 345.52 359.08 401.68 C360.02 404.36 360.02 404.36 362.58 407.24 C365.02 410.36 365.02 410.36 365.58 414.68 C365.4 415.89 365.21 417.11 365.02 418.36 C361.02 419.36 361.02 419.36 357.52 419.3 C354.02 419.36 354.02 419.36 350.02 421.36 C347.14 421.63 347.14 421.63 344.02 421.61 C342.99 421.62 341.96 421.62 340.89 421.63 C338.02 421.36 338.02 421.36 334.02 419.36 C334.02 420.02 334.02 420.68 334.02 421.36 C335.67 422.02 337.32 422.68 339.02 423.36 C344.34 431.34 340.41 446.36 339.02 455.36 C338.15 459.41 337.1 463.36 336.02 467.36 C334.78 472.98 334.02 477.59 334.02 483.36 C337.16 485.52 337.16 485.52 341.27 487.43 C346.38 489.82 349.92 491.56 353.02 496.36 C354.63 501.18 354.41 505.07 352.96 509.93 C349.51 516.04 345.55 518.79 339.02 521.24 C334.77 522.19 331.34 522.64 327.02 522.36 C329.58 520.31 332.1 518.31 334.83 516.49 C335.19 516.14 335.19 516.14 337.02 514.36 C337.02 512.38 337.02 510.4 337.02 508.36 C331.95 503.58 324.47 501.72 318.02 499.36 C316.85 498.88 315.68 498.4 314.48 497.91 C249.61 475.4 172.31 473.67 104.48 469.69 C101.73 469.49 98.97 469.22 96.23 468.86 C90.6 468.2 84.97 468.01 79.31 467.83 C78.69 467.81 78.69 467.81 75.53 467.7 C71.42 467.56 67.32 467.43 63.21 467.3 C61.78 467.26 60.36 467.21 58.89 467.17 C16.15 465.87 -26.49 466.11 -69.23 467.24 C-70.76 467.28 -72.28 467.32 -73.85 467.36 C-89.65 467.77 -105.33 468.4 -121.06 469.91 C-126.71 470.43 -132.34 470.74 -138 470.99 C-202.64 473.98 -275.28 480.57 -336.42 502.55 C-337.4 502.89 -338.37 503.24 -339.38 503.59 C-343.38 505 -347.19 506.47 -350.98 508.36 C-352.04 511.18 -352.04 511.18 -351.98 514.36 C-348.73 518.73 -345.01 520.49 -339.98 522.36 C-347.06 524.13 -354.19 520.78 -360.54 517.55 C-365.1 513.46 -366.81 509.89 -367.48 503.8 C-366.8 497.73 -364.64 494.91 -360.23 490.8 C-355.24 483.17 -358.06 472.73 -359.41 464.16 C-360.05 459.91 -360.52 455.64 -360.98 451.36 C-361.31 448.36 -361.65 445.36 -361.98 442.36 C-362.13 440.98 -362.29 439.6 -362.45 438.18 C-362.6 436.92 -362.76 435.66 -362.92 434.36 C-363.05 433.25 -363.18 432.14 -363.32 430.99 C-363.98 428.36 -363.98 428.36 -366.98 426.36 C-367.73 426.22 -367.73 426.22 -371.54 425.49 C-373.01 425.12 -374.47 424.75 -375.98 424.36 C-378.53 419.27 -378.15 416.9 -376.98 411.36 C-375.97 410.02 -374.96 408.68 -373.92 407.3 C-370.41 402.6 -370.57 401.08 -370.98 395.36 C-373.76 380.85 -378.54 366.72 -382.96 352.64 C-383.92 349.56 -384.84 346.47 -385.75 343.37 C-393.86 315.8 -403.42 288.23 -415.98 262.36 C-416.91 260.38 -417.84 258.39 -418.77 256.4 C-424.51 244.18 -430.63 232.24 -437.18 220.43 C-439.68 215.92 -442.09 211.37 -444.48 206.8 C-447.87 200.37 -451.42 194.04 -455.04 187.74 C-462.83 174.15 -462.83 174.15 -465.73 168.93 C-466.36 167.79 -467 166.66 -467.65 165.49 C-468.98 162.36 -468.98 162.36 -468.98 156.36 C-465.98 153.36 -465.98 153.36 -461.1 152.95 C-454.39 153.14 -448.4 154.93 -442.04 156.99 C-440.95 157.32 -439.86 157.65 -438.74 157.99 C-421.13 163.54 -403.23 173.85 -392.29 189.11 C-390.59 193.33 -391.66 196.07 -392.73 200.36 C-392.98 203.36 -392.98 203.36 -389.98 208.36 C-386.88 209.91 -383.92 209.34 -380.48 209.24 C-369.73 209.2 -362.19 211.14 -353.98 218.36 C-350.02 222.42 -349.77 225.46 -349.79 230.93 C-349.84 232.02 -349.89 233.11 -349.94 234.24 C-349.98 237.36 -349.98 237.36 -348.98 242.36 C-350.36 243.11 -351.74 243.85 -353.17 244.61 C-358.9 247.89 -359.91 250.22 -361.98 256.36 C-363.65 263.05 -364.47 270.5 -361.23 276.74 C-360.49 277.6 -359.75 278.47 -358.98 279.36 C-356.08 284.05 -354.1 288.58 -352.36 293.8 C-349.04 302.82 -344.38 310.44 -338.98 318.36 C-338.07 319.75 -337.15 321.13 -336.21 322.56 C-330.02 331.55 -325.72 335.68 -314.98 338.36 C-309.56 338.36 -306.61 337.2 -301.98 334.36 C-296.6 326.95 -293.83 319.11 -291.02 310.4 C-287.67 300.46 -287.67 300.46 -282.98 297.36 C-275.83 296.15 -271.03 298.66 -264.98 302.36 C-260.64 306.41 -257.23 311.02 -253.73 315.8 C-250.98 319.36 -250.98 319.36 -246.98 321.36 C-239.26 319.82 -236.12 314.82 -231.75 308.43 C-228.28 302.41 -226.11 295.95 -223.98 289.36 C-223.64 288.34 -223.29 287.31 -222.94 286.25 C-219.63 274.54 -219.61 260.23 -221.98 248.36 C-223.63 247.7 -225.28 247.04 -226.98 246.36 C-235.18 242.85 -239.6 239.28 -244.98 232.36 C-247.02 227.27 -247.54 224.75 -246.98 219.36 C-244.38 214.31 -241.78 210.48 -236.98 207.36 C-236.32 207.36 -235.66 207.36 -234.98 207.36 C-235.03 206.07 -235.07 204.78 -235.12 203.45 C-235.47 186.73 -233.06 172.84 -221.82 159.87 C-215.59 153.51 -215.59 153.51 -209.92 152.99 C-199.84 153.75 -192.8 160.42 -185.98 167.36 C-179.16 175.74 -178.78 180.79 -178.36 191.36 C-177.98 195.36 -177.98 195.36 -175.98 199.36 C-173.67 201.18 -173.67 201.18 -170.98 202.93 C-167.81 204.99 -166.1 206.18 -163.98 209.36 C-163.41 218.91 -164.27 224.99 -170.29 232.49 C-172.61 234.92 -174.96 237.32 -177.36 239.68 C-180.71 243.11 -180.94 244.64 -181.23 249.43 C-180.74 259.19 -177.34 265.4 -171.98 273.36 C-169.17 278.02 -166.46 282.74 -163.75 287.46 C-155.71 301.25 -146.42 307.6 -130.98 311.86 C-114.11 315.51 -98.56 312.99 -83.63 304.13 C-73.07 297.08 -66.13 289.49 -59.98 278.36 C-59.4 277.33 -58.83 276.31 -58.23 275.25 C-51.69 262.42 -48.4 247.62 -50.98 233.36 C-51.16 232.34 -51.34 231.31 -51.52 230.25 C-53.7 219.89 -58.76 212.67 -65.61 204.8 C-70.7 198.9 -74.76 193.73 -75.17 185.68 C-73.5 181.02 -70.91 179.34 -66.98 176.36 C-63.9 174.96 -60.77 173.68 -57.61 172.49 C-45.21 167.41 -38.89 162.05 -33.24 149.69 C-30.87 143.41 -31.55 139.73 -33.54 133.43 C-38.57 122.99 -45.9 116.51 -54.55 108.99 C-59.62 103.63 -61.92 98.8 -62.11 91.43 C-59.94 81.67 -54.16 73.15 -45.86 67.61 C-40.96 63.51 -40.39 60.51 -38.98 54.36 C-33.06 34.81 -21.3 15.9 -6.98 1.36 C-2.98 -0.64 -2.98 -0.64 0 0 Z M119.02 385.36 C121.02 389.36 121.02 389.36 124.08 391.11 C132.87 393.34 142.15 393.14 151.02 391.36 C155.58 391.05 155.58 391.05 160.02 391.36 C164.02 395.36 164.02 395.36 164.02 398.74 C162.95 402.63 161.38 405.12 159.02 408.36 C157.71 412.28 157.65 415.25 158.02 419.36 C161.24 423.75 164.91 425.66 170.02 427.36 C177.14 427.36 178.61 425.64 184.02 421.36 C188.02 420.36 188.02 420.36 191.39 422.3 C195.02 424.36 195.02 424.36 201.02 424.36 C210.37 418.69 218.02 409.03 223.02 399.36 C222.85 398.54 222.85 398.54 222.02 394.36 C216.36 390.97 211.43 390.22 205.02 389.36 C203.85 389.21 202.67 389.05 201.46 388.89 C191.68 387.63 181.91 386.68 172.08 385.86 C163.16 385.11 154.27 384.34 145.39 383.18 C123.86 380.52 123.86 380.52 119.02 385.36 Z " fill="#A77C36" transform="translate(1255.98046875,65.63671875)"/>
<path d="M0 0 C5.56 0.45 10.47 1.62 15.73 3.41 C17.19 3.9 18.64 4.39 20.13 4.9 C20.9 5.16 20.9 5.16 24.75 6.5 C25.53 6.77 25.53 6.77 29.49 8.14 C68.69 21.9 101.36 42.68 120.23 80.8 C126.02 93.2 128.97 106.55 132.06 119.81 C134.67 130.48 139.68 137.83 147 146 C150.43 150.6 153.7 155.31 157 160 C157.49 160.67 157.49 160.67 159.96 164.09 C165.08 171.2 169.88 178.34 174.25 185.94 C183.7 202.35 183.7 202.35 191 206 C192.61 200.29 191.52 196.75 188.71 191.6 C186.28 187.91 183.38 184.8 180.38 181.58 C165.72 165.67 156.69 145.35 150 125 C149.44 123.32 148.89 121.64 148.32 119.91 C144.39 107.77 141.67 97.03 141.81 84.25 C141.81 83.14 141.81 82.03 141.81 80.89 C141.84 76.09 142.06 71.72 143 67 C143.19 63.13 143.32 59.27 143.43 55.4 C144.01 50.89 145.46 47.19 147.09 42.98 C148.7 37.71 148.6 32.41 148.62 26.94 C148.76 15.24 148.76 15.24 151 13 C161.44 15.61 169 27.19 175.21 35.4 C178.03 39.04 181.01 42.48 184.06 45.94 C190.07 52.9 195.1 60.23 200 68 C200.94 69.46 201.88 70.92 202.86 72.42 C218.14 96.6 225.63 122.56 220.88 151.22 C217.79 164.46 212.72 177.16 207.38 189.63 C204.33 197.07 205.01 203.97 205.25 211.88 C205.28 213.22 205.3 214.56 205.33 215.95 C205.77 230.74 209.06 243.15 214.75 256.75 C215.84 259.41 216.93 262.08 218.02 264.74 C218.54 266 219.06 267.26 219.59 268.56 C221.84 274.06 223.98 279.59 226.11 285.13 C227.61 289 229.13 292.86 230.67 296.71 C237.46 313.88 243.57 331.2 249.31 348.75 C249.76 350.12 250.21 351.49 250.68 352.89 C251.58 355.69 252.45 358.5 253.28 361.32 C253.7 362.68 254.11 364.04 254.54 365.44 C254.89 366.65 255.25 367.87 255.61 369.12 C257 372 257 372 262 374 C265.2 363.64 263.24 356.68 258.38 347.19 C250.71 331.75 245.49 315.87 242 299 C241.7 297.69 241.4 296.37 241.09 295.02 C233.89 261.23 245.95 227.27 258.67 196.28 C262.94 185.84 266.79 175.35 270.07 164.55 C271.04 161.55 271.04 161.55 273 157 C274.65 156.67 276.3 156.34 278 156 C284.44 163.65 289 172.11 293.5 181 C293.83 181.64 293.83 181.64 295.48 184.88 C314.93 223.37 328.39 263.18 314.75 305.75 C308.28 324.15 298.65 340.23 285.94 355.06 C271.53 372.25 269.77 404.36 271 426 C271.61 431.59 272.33 437.17 273.07 442.74 C274.43 453.13 275.52 463.56 276.64 473.98 C276.72 474.72 276.72 474.72 277.13 478.48 C277.28 479.81 277.42 481.14 277.57 482.51 C277.92 485.36 278.44 488.19 279 491 C279.16 493.17 279.28 495.33 279.37 497.5 C279.43 498.8 279.49 500.09 279.55 501.43 C279.6 502.82 279.66 504.2 279.72 505.64 C279.85 508.57 279.98 511.51 280.11 514.45 C280.3 519.08 280.5 523.72 280.7 528.35 C280.89 532.82 281.08 537.29 281.28 541.76 C281.34 543.16 281.4 544.55 281.45 545.99 C281.51 547.28 281.57 548.56 281.63 549.89 C281.65 550.45 281.65 550.45 281.77 553.33 C282 556 282 556 283 558 C284.32 558 285.64 558 287 558 C288.06 555.5 288.06 555.5 289 552 C289.52 550.72 290.03 549.44 290.56 548.12 C294.83 535.88 292.34 523.09 290.44 510.56 C285.69 476.55 290.74 440.02 308 410 C308.75 408.63 309.49 407.25 310.26 405.84 C316.61 394.23 323.65 384.24 332.25 374.21 C335.41 370.52 338.5 366.77 341.56 363 C343.39 360.75 345.24 358.51 347.1 356.29 C353.57 348.47 359.51 340.56 364.98 332.01 C367 329 367 329 370 326 C374 327 374 327 376.09 330.38 C384.93 351.8 387.57 380.06 388 403 C388.04 404.87 388.08 406.73 388.12 408.65 C388.41 434.73 384.86 459.51 373 483 C372.62 483.76 372.62 483.76 370.68 487.59 C365.74 496.94 360.44 504.52 353 512 C351.85 513.36 350.69 514.72 349.5 516.12 C339.32 527.4 326.88 537.2 313.19 543.81 C304.27 549.31 300.31 561.82 296 571 C295.33 572.35 294.66 573.71 293.97 575.1 C285.31 592.86 279.94 609.52 277.44 629.12 C276.87 633.2 276.29 637.28 275.7 641.35 C275.56 642.35 275.41 643.36 275.27 644.39 C270.61 676.93 262.52 709.2 254.17 740.97 C253 746 253 746 253 752 C261.32 749.92 267.4 741.4 272 734.5 C275.52 724.83 277.03 714.75 278.74 704.63 C281.81 686.47 286.64 669.28 293 652 C293.41 650.77 293.82 649.54 294.24 648.28 C297.12 639.95 301.52 633.84 307 627 C308.3 625.22 309.59 623.42 310.88 621.62 C312.25 619.75 313.62 617.87 315 616 C315.82 614.87 316.64 613.75 317.49 612.59 C323.85 604.14 330.69 597.51 339 591 C340.09 590.12 341.18 589.24 342.3 588.33 C356.37 577.08 371.09 566.86 386.14 556.98 C393.98 551.79 401.35 546.22 408.64 540.28 C412 538 412 538 417 538 C428.71 572.43 414.57 627.74 399.46 659.45 C394.32 669.82 388.38 679.07 381 688 C379.33 690.25 377.66 692.5 376 694.75 C367.12 706.21 355.92 713.88 344 722 C343.02 722.68 342.04 723.37 341.02 724.07 C331.11 730.74 320.34 734.99 308.98 738.57 C307.53 739.03 306.08 739.5 304.58 739.97 C301.66 740.89 298.74 741.79 295.8 742.65 C286.57 745.55 280.61 748.97 274 756 C272.77 757.17 271.54 758.35 270.28 759.55 C258.59 771.17 249.17 783.32 240 797 C239.06 798.31 238.12 799.62 237.15 800.97 C232.86 807.82 229.61 815.03 226.25 822.38 C218.63 838.79 210.49 854.75 201.55 870.5 C199.55 874.02 197.57 877.56 195.61 881.1 C184.23 901.55 184.23 901.55 178.55 910.45 C174 917.93 174 917.93 174 923 C179.89 920.98 184.92 918.44 190.19 915.12 C191.54 914.28 192.9 913.44 194.29 912.57 C204.8 905.29 210.83 894.56 216.75 883.5 C228.95 860.7 242.95 838.71 263 822 C263.87 821.23 264.74 820.46 265.64 819.67 C273.23 813.07 281.24 807.93 290 803 C291.13 802.33 292.25 801.66 293.41 800.98 C319.21 786.26 349.92 780.09 378.5 773.2 C384.9 771.63 391.12 770.06 397.26 767.67 C402 766 402 766 407 767 C407.33 767.33 407.66 767.66 408 768 C407.83 776.32 404.8 782.6 401.25 789.94 C400.67 791.16 400.09 792.38 399.49 793.64 C397.67 797.43 395.84 801.22 394 805 C393.72 805.58 393.72 805.58 392.31 808.53 C369.62 855.79 338.71 892.39 289 912 C278.46 915.69 268.1 917.94 257 919 C255.32 919.17 253.65 919.35 251.92 919.52 C246.53 919.96 241.19 920.17 235.79 920.29 C195.75 921.24 166.14 942.81 138.93 971.2 C136.26 974.11 133.63 977.05 131 980 C129.09 982.09 127.17 984.17 125.25 986.25 C122.2 989.57 119.21 992.91 116.25 996.31 C112.97 1000.03 109.51 1003.49 106 1007 C104.93 1008.23 103.87 1009.46 102.77 1010.72 C99.03 1014.96 95.16 1018.97 91.16 1022.97 C90.43 1023.7 89.71 1024.43 88.96 1025.17 C87.44 1026.7 85.91 1028.22 84.39 1029.75 C82.07 1032.06 79.76 1034.37 77.45 1036.69 C75.96 1038.18 74.46 1039.67 72.97 1041.16 C71.63 1042.5 70.3 1043.83 68.92 1045.21 C65.05 1048.95 61.05 1052.47 57 1056 C53.72 1059.56 52.18 1061.29 51 1066 C68.38 1063.67 83.92 1058.4 96.3 1045.86 C97.69 1044.46 99.08 1043.06 100.51 1041.62 C101.97 1040.14 103.42 1038.66 104.88 1037.19 C107.72 1034.3 110.58 1031.42 113.43 1028.54 C114.69 1027.26 115.95 1025.99 117.25 1024.67 C155.43 987.32 201.94 972.6 254.47 972.92 C260.47 973.06 266.45 973.5 272.44 973.94 C287.15 974.96 301.84 975.37 316.58 975.57 C318.17 975.6 319.76 975.63 321.4 975.66 C322.11 975.67 322.11 975.67 325.7 975.71 C329 976 329 976 331 978 C329.32 986.39 323.59 991.65 317.54 997.34 C315 1000 315 1000 311.56 1004.42 C306.02 1011.42 299.69 1017.64 293.38 1023.94 C292.78 1024.54 292.78 1024.54 289.79 1027.57 C257.83 1059.55 217.17 1083.97 171 1085 C169.97 1085.04 168.94 1085.08 167.88 1085.13 C149.91 1085.83 134.22 1084.1 117 1079 C115.02 1078.42 113.04 1077.84 111.06 1077.27 C107.53 1076.24 104.01 1075.18 100.5 1074.1 C72.46 1067.23 33.42 1086.28 10 1100.25 C4.12 1103.92 -1.56 1107.77 -7.19 1111.81 C-21.93 1122.38 -37.78 1131.31 -53.4 1140.51 C-59.4 1144.04 -65.34 1147.63 -71.25 1151.32 C-72.15 1151.87 -73.06 1152.43 -74 1153 C-74.44 1153.34 -74.44 1153.34 -76.69 1155.08 C-83.28 1158.02 -89.64 1157.49 -96.78 1157.39 C-98.3 1157.38 -99.82 1157.38 -101.39 1157.37 C-106.24 1157.35 -111.09 1157.3 -115.94 1157.25 C-119.23 1157.23 -122.52 1157.21 -125.81 1157.2 C-133.88 1157.15 -141.94 1157.08 -150 1157 C-147.05 1154.58 -144.18 1152.48 -140.94 1150.44 C-133.98 1145.85 -126.23 1140.07 -122.19 1132.69 C-120 1130 -120 1130 -115.93 1129.31 C-115.16 1129.33 -115.16 1129.33 -111.31 1129.44 C-110.55 1129.45 -110.55 1129.45 -106.68 1129.5 C-106.07 1129.58 -106.07 1129.58 -103 1130 C-102.84 1130.49 -102.84 1130.49 -102 1133 C-95.5 1133.03 -90.85 1129.96 -85.38 1126.75 C-84.46 1126.22 -83.55 1125.68 -82.61 1125.14 C-64.55 1114.52 -46.66 1103.51 -29.8 1091.05 C-26.59 1088.7 -23.32 1086.42 -20.06 1084.12 C-14.45 1080.12 -9.12 1075.9 -3.87 1071.43 C-1.1 1069.08 1.72 1066.82 4.56 1064.56 C25.89 1047.04 38.27 1025.07 44 998 C44.37 992.06 43.86 987.47 41.88 981.88 C41.42 980.59 40.96 979.3 40.5 977.97 C39.03 974.08 37.5 970.23 35.94 966.38 C19.96 926.85 21.25 887.18 37 848 C40.9 838.98 45.14 830.13 49.41 821.29 C51.5 816.96 53.53 812.61 55.56 808.25 C56.17 806.98 56.77 805.71 57.4 804.39 C58.43 802.2 59.44 799.99 60.41 797.76 C61.69 794.94 61.69 794.94 64 791 C65.65 791 67.3 791 69 791 C74.44 797.57 78.06 804.81 81.76 812.47 C83.79 816.58 85.94 820.62 88.13 824.65 C105.18 856.3 113.47 890.65 104 926 C97.3 948.16 85.28 966.54 69.54 983.25 C69.12 983.7 69.12 983.7 67 986 C66.13 986.93 65.25 987.86 64.35 988.81 C61.54 992.62 60.45 996.01 59.19 1000.56 C58.77 1002.03 58.35 1003.49 57.92 1005 C57 1009 57 1009 57 1014 C62.63 1012.87 63.68 1011.74 67.5 1007.69 C70.85 1004.16 74.19 1001.01 78 998 C80.39 995.37 82.7 992.71 85 990 C86.96 987.71 88.92 985.42 90.88 983.12 C91.91 981.91 92.95 980.7 94.02 979.45 C96.49 976.59 99 973.78 101.56 971 C112.97 958.39 123.14 944.45 132.1 930.01 C133.54 927.73 135.02 925.48 136.52 923.24 C143.64 912.57 149.44 901.55 155 890 C155.91 888.22 156.82 886.43 157.73 884.65 C162.03 875.85 161.46 866.96 161.75 857.31 C161.82 855.59 161.89 853.87 161.96 852.1 C162.01 850.44 162.06 848.77 162.11 847.05 C162.16 845.53 162.21 844.01 162.26 842.45 C161.54 830.32 154.93 823.09 147.13 814.4 C140.42 806.85 134.53 799.1 129.2 790.52 C127.8 788.28 126.36 786.06 124.87 783.89 C114.16 767.87 111.45 748.6 108 730 C107.67 728.35 107.34 726.7 107 725 C106.24 706.15 107.33 687.7 109.49 668.97 C110.59 659.42 111.31 649.98 111.56 640.38 C112.05 635.48 113 631.5 115 627 C116.65 626.67 118.3 626.34 120 626 C126.85 630.81 132.58 636.46 138.43 642.42 C140.47 644.47 142.63 646.41 144.81 648.31 C169.23 669.81 186.83 695.68 196 727 C196.34 728.12 196.68 729.25 197.04 730.41 C204.73 759.9 195.61 790.97 183.19 817.68 C178.28 828.58 176.59 839.04 177 851 C179.78 850.83 179.78 850.83 183 850 C184.88 847.74 184.88 847.74 186.48 844.73 C187.08 843.6 187.68 842.48 188.3 841.33 C188.92 840.11 189.55 838.88 190.19 837.62 C190.84 836.37 191.5 835.12 192.17 833.83 C198.08 822.29 202.98 810.42 207.65 798.34 C209.17 794.58 210.82 790.9 212.47 787.2 C215.96 779.29 218.81 771.29 221.44 763.06 C221.9 761.62 222.37 760.18 222.85 758.69 C233.35 725.38 241.75 692.25 231 658 C230.53 656.47 230.06 654.94 229.58 653.36 C225.51 641.32 219.44 636.82 208.94 629.81 C200.66 624.23 192.75 618.3 185 612 C183.99 611.2 182.98 610.39 181.94 609.56 C173.84 603.06 167.24 596.75 161.83 587.83 C159.99 584.99 157.99 582.46 155.81 579.88 C150.25 573.06 147.68 565.4 145.12 557.09 C144 554 144 554 141.99 550.15 C139.94 545.87 139.01 542.3 138.19 537.62 C137.86 535.8 137.54 533.97 137.2 532.08 C136.8 529.72 136.4 527.36 136 525 C135.73 523.46 135.47 521.92 135.19 520.34 C129.01 484.76 129.01 484.76 127 467.5 C126.88 466.44 126.75 465.38 126.62 464.29 C125.87 457.27 125.87 457.27 127 455 C132.88 455.22 136.9 457.29 141.94 460.19 C143.51 461.09 145.09 461.99 146.71 462.93 C147.14 463.17 147.14 463.17 149.28 464.42 C152.15 466.09 155.03 467.72 157.91 469.36 C173.97 478.51 189.7 488.03 203 501 C203.96 501.91 204.93 502.83 205.92 503.77 C221.49 518.85 232.77 536.11 239 557 C239.38 558.24 239.76 559.49 240.15 560.77 C245.42 580.18 245.31 601.54 241.44 621.19 C239.38 631.8 239.63 640.13 243.12 650.35 C244 653 244 653 244 655 C245.32 654.67 246.64 654.34 248 654 C250.52 647.71 251.43 641.55 252.5 634.88 C252.72 633.51 252.94 632.14 253.17 630.73 C254.95 619.28 255.96 607.87 256.64 596.3 C257 591 257 591 258 586 C259.14 574.13 259.19 562.28 259.19 550.36 C259.19 547.03 259.21 543.71 259.22 540.38 C259.29 515.31 258.79 489.03 248 466 C247.56 465.04 247.12 464.07 246.66 463.08 C241.51 452.76 233.82 441.87 222.7 437.79 C221.47 437.4 220.23 437.02 218.96 436.62 C217.58 436.18 216.21 435.74 214.79 435.28 C214.06 435.05 214.06 435.05 210.38 433.88 C186.64 426.12 166.08 416.58 148 399 C146.64 397.8 145.28 396.61 143.88 395.38 C139.34 390.25 136.14 384.85 132.79 378.9 C131.23 376.17 129.65 373.44 128 370.76 C121.91 360.87 116.79 350.68 111.81 340.19 C103.26 322.22 103.26 322.22 99.57 316.2 C95.64 309.78 93.51 304.46 95 297 C101.23 296.33 106.69 297.4 112.71 298.94 C114.34 299.36 115.97 299.77 117.64 300.2 C119.35 300.65 121.06 301.1 122.81 301.56 C123.69 301.79 123.69 301.79 128.12 302.95 C166.86 313.23 201.4 330.8 223 366 C232.58 383.55 238.77 401.93 239.19 422 C239.59 430.72 241.37 435.33 247 442 C248.65 442.33 250.3 442.66 252 443 C252.35 436.22 251.35 430.37 249.84 423.82 C249 420.02 248.4 416.22 247.81 412.38 C242.85 383.83 232.47 355.32 223 328 C222.69 327.09 222.37 326.18 222.05 325.24 C221.03 322.28 219.98 319.33 218.94 316.38 C218.31 314.59 217.68 312.8 217.03 310.96 C210.28 294.44 196.44 277.42 180 270 C167.66 266.28 155.01 264.17 142.23 262.61 C128.01 260.69 115.15 254.67 105.24 244.25 C103 242 103 242 98.69 238.69 C94.74 235.58 91.43 232.46 87.94 228.88 C84.52 225.37 81.88 222.93 77.62 220.44 C73.36 217.57 71.8 214.43 69.55 209.89 C67.48 206.04 64.85 202.87 62.05 199.51 C60.01 197.01 58.12 194.44 56.25 191.81 C51.96 185.81 47.26 180.15 42.54 174.48 C40.18 171.25 38.85 168.88 38 165 C38.33 164.34 38.66 163.68 39 163 C66.71 156.07 106.57 166.67 130.59 180.68 C138.47 185.65 145.87 191.01 153 197 C154.01 197.76 155.02 198.53 156.06 199.31 C170.87 212.86 181.32 232.85 187.25 251.81 C189 257 189 257 193 261 C194.32 261 195.64 261 197 261 C196.61 253.7 193.38 247.69 190.31 241.19 C189.79 240.06 189.28 238.94 188.74 237.78 C183.66 226.88 177.35 216.9 170.75 206.88 C166.39 200.24 162.09 193.58 157.94 186.81 C149.08 172.57 139.59 158.19 128 146 C127.61 145.57 127.61 145.57 125.62 143.42 C119.96 139.63 113.67 138.4 107.12 136.69 C92.05 132.53 78.4 128.21 67 117 C61.56 111.74 56.42 107.03 49.75 103.38 C40.99 98.49 36.71 91.92 32.52 83.06 C31.06 80.12 29.43 77.44 27.62 74.69 C24.07 69.24 20.99 63.59 17.99 57.82 C16.71 55.36 15.39 52.91 14.04 50.49 C10.02 43.06 8.22 36.57 6.96 28.25 C5.47 21.67 2.53 15.88 -0.45 9.86 C-2 6 -2 6 -1 1 C-0.67 0.67 -0.34 0.34 0 0 Z " fill="#A77C36" transform="translate(1802,543)"/>
<path d="M0 0 C1.02 8.43 -2.62 15.02 -6 22.5 C-6.59 23.84 -7.19 25.18 -7.8 26.57 C-11.42 34.69 -15.22 42.7 -19.3 50.6 C-21.07 54.14 -22.65 57.73 -24.19 61.38 C-24.67 62.52 -25.16 63.66 -25.66 64.84 C-26.8 67.52 -27.93 70.2 -29.06 72.88 C-33.51 80.63 -39.17 87.25 -45 94 C-45.37 94.43 -45.37 94.43 -47.25 96.61 C-65.39 116.05 -92.35 128.41 -118 134.19 C-136.38 138.46 -148.62 159.46 -158.06 174.5 C-158.57 175.31 -158.57 175.31 -161.12 179.43 C-163.51 183.23 -165.97 186.91 -168.56 190.56 C-174.11 198.46 -179.05 206.72 -184 215 C-184.69 216.14 -185.38 217.28 -186.09 218.45 C-190.42 225.78 -194.22 233.34 -197.94 241 C-198.42 241.99 -198.91 242.98 -199.41 244.01 C-201.62 248.63 -203.59 252.84 -204 258 C-197.25 255.3 -194.99 252.25 -192.08 245.64 C-191.47 244 -190.87 242.37 -190.25 240.69 C-177.02 206.61 -156.17 185.02 -122.66 170.06 C-108.34 164.26 -93.36 159.93 -78 158 C-76.54 157.82 -75.08 157.63 -73.57 157.44 C-52.25 154.97 -52.25 154.97 -44 156 C-43.5 156.5 -43.5 156.5 -41 159 C-41.9 163.8 -44 166.46 -47.38 169.88 C-53.89 176.78 -59.39 184.35 -65 192 C-67.24 195.02 -69.49 198.03 -71.76 201.04 C-73.3 203.07 -74.82 205.12 -76.33 207.18 C-89 224.02 -103.21 238.19 -122 248 C-122.58 248.31 -122.58 248.31 -125.49 249.85 C-139.85 256.97 -155.39 259 -171.12 260.98 C-190.03 263.58 -200.01 272.64 -211.36 287.47 C-212.23 288.64 -213.1 289.8 -214 291 C-214.96 292.18 -215.93 293.36 -216.92 294.58 C-220.26 299.38 -222.04 303.72 -223.95 309.23 C-224.3 310.21 -224.64 311.19 -224.99 312.2 C-226.09 315.38 -227.17 318.56 -228.25 321.75 C-228.44 322.3 -228.44 322.3 -229.38 325.05 C-236.04 344.5 -241.86 364.09 -247 384 C-247.61 386.28 -248.22 388.56 -248.83 390.84 C-252.93 406.39 -256.26 421.85 -256 438 C-254.35 437.67 -252.7 437.34 -251 437 C-246.13 428.93 -244.77 420.94 -243.69 411.69 C-239.43 379.66 -225.67 349.48 -200 329 C-176.06 311.03 -149.06 301.54 -120.38 294 C-119.23 293.7 -118.09 293.39 -116.91 293.08 C-104.28 289.86 -104.28 289.86 -100 292 C-100.13 299.4 -102.57 305.09 -105.88 311.56 C-106.88 313.6 -107.89 315.64 -108.89 317.68 C-109.15 318.2 -109.15 318.2 -110.46 320.83 C-112.94 325.92 -115.24 331.09 -117.56 336.25 C-134.68 373.84 -155.49 406.96 -195 423 C-203.25 425.97 -211.59 428.65 -219.93 431.33 C-221.55 431.86 -223.17 432.4 -224.83 432.95 C-226.28 433.42 -227.73 433.88 -229.23 434.37 C-242.47 440.1 -252.5 461.27 -257.67 474.09 C-264.38 493.87 -264.44 513.91 -264.9 534.57 C-264.96 537.32 -265.03 540.08 -265.11 542.84 C-267.25 623.49 -267.25 623.49 -254 650 C-253.01 649.67 -252.02 649.34 -251 649 C-246.37 635.56 -246.44 623.51 -248.5 609.69 C-253.57 573.88 -246.09 540.61 -224.67 511.42 C-205.17 486.44 -178.97 470.66 -151.38 455.94 C-149.96 455.17 -148.54 454.4 -147.08 453.6 C-145.72 452.88 -144.36 452.15 -142.96 451.4 C-141.74 450.75 -140.52 450.09 -139.27 449.42 C-136 448 -136 448 -131 448 C-130.87 455.42 -131.29 462.39 -132.36 469.77 C-132.5 470.76 -132.64 471.76 -132.79 472.78 C-133.1 474.88 -133.4 476.98 -133.72 479.07 C-134.18 482.2 -134.63 485.33 -135.07 488.45 C-139.39 518.21 -145.57 547.48 -162.14 573.11 C-163.83 575.74 -165.39 578.46 -166.94 581.19 C-173.38 591.32 -181.3 598.07 -191 605 C-192.77 606.35 -194.54 607.71 -196.31 609.06 C-203.39 614.39 -210.7 619.39 -217.99 624.42 C-218.95 625.08 -219.91 625.74 -220.9 626.43 C-221.33 626.72 -221.33 626.72 -223.51 628.22 C-236.72 637.67 -239.61 655.18 -242.49 670.55 C-243.36 676.45 -243.59 682.3 -243.62 688.25 C-243.63 688.78 -243.63 688.78 -243.66 691.47 C-243.34 709.51 -238.14 727.12 -233.12 744.31 C-232.62 746.09 -232.12 747.86 -231.6 749.69 C-227.42 764.2 -222.22 778.15 -216.54 792.13 C-215.5 794.74 -214.51 797.38 -213.56 800.03 C-208.05 815.19 -200.72 831.03 -191 844 C-190.01 844 -189.02 844 -188 844 C-184.46 836.92 -186.5 824.89 -188.44 817.56 C-189.25 815.69 -190.11 813.84 -191 812 C-207.94 776.91 -212.53 742.53 -200 705 C-194.07 689.29 -186.24 674.53 -175 662 C-174.36 661.28 -173.73 660.56 -173.07 659.81 C-167.55 653.61 -161.82 647.67 -155.94 641.81 C-155.09 640.96 -154.24 640.11 -153.37 639.24 C-148.41 634.28 -143.32 629.58 -138 625 C-136.44 623.54 -134.87 622.08 -133.31 620.62 C-129 617 -129 617 -124 616 C-118.38 631.21 -119.12 649.59 -117.73 665.66 C-117.3 670.64 -116.85 675.62 -116.36 680.59 C-115.41 690.42 -114.49 700.12 -115 710 C-115.06 711.14 -115.11 712.29 -115.17 713.47 C-117.6 741.85 -125.6 768.05 -144 790 C-144.97 791.16 -145.95 792.33 -146.95 793.53 C-151.64 799.06 -156.42 804.45 -161.44 809.69 C-172.16 821.36 -172.67 834.7 -172.18 849.94 C-169.91 887.79 -144.82 927.61 -119.31 954.51 C-117 957 -114.9 959.58 -112.81 962.25 C-110.48 965.23 -108.19 967.81 -105.5 970.5 C-102 974 -102 974 -98.44 978.56 C-92.91 985.63 -86.4 991.74 -80 998 C-79.12 998.94 -78.23 999.88 -77.32 1000.86 C-75 1003 -75 1003 -71 1004 C-69.53 999.6 -70.96 996.62 -72.19 992.19 C-72.61 990.61 -73.04 989.04 -73.48 987.42 C-75.75 980.82 -79.01 976.77 -84.06 972.06 C-107.07 949.42 -120.61 918.69 -121.25 886.56 C-121.1 864.49 -115.32 844.79 -106 825 C-105.26 823.39 -104.52 821.78 -103.76 820.12 C-99.28 810.47 -94.54 801.1 -89 792 C-88.65 791.42 -88.65 791.42 -86.9 788.47 C-86.55 787.92 -86.55 787.92 -84.81 785.12 C-84.51 784.63 -84.51 784.63 -82.96 782.13 C-82.63 781.78 -82.63 781.78 -81 780 C-79.35 780 -77.7 780 -76 780 C-70.98 786.92 -67.79 794.68 -64.41 802.5 C-62.61 806.65 -60.74 810.77 -58.84 814.88 C-38.41 859.36 -30.34 900.37 -47.77 947.66 C-49.67 952.72 -51.63 957.75 -53.61 962.78 C-56.57 970.4 -58.28 976.62 -58.25 984.88 C-58.26 986.38 -58.26 987.88 -58.27 989.43 C-57.7 999.22 -54.62 1006.39 -49.94 1014.81 C-49.35 1015.88 -48.76 1016.95 -48.15 1018.05 C-36.23 1039.27 -19.37 1053.64 0 1068 C2.19 1069.73 4.38 1071.46 6.56 1073.19 C12.36 1077.66 18.45 1081.48 24.7 1085.3 C29.4 1088.25 33.94 1091.39 38.5 1094.56 C45.57 1099.44 52.73 1103.83 60.27 1107.93 C64.97 1110.54 69.5 1113.38 74.04 1116.27 C82.15 1121 82.15 1121 87 1121 C87.33 1120.01 87.66 1119.02 88 1118 C93.08 1117.01 97.91 1117.08 103 1118 C107 1122.12 107 1122.12 110 1127 C119.64 1136.45 131.93 1142.7 143.99 1148.47 C144.98 1148.97 145.98 1149.48 147 1150 C147 1150.33 147 1150.66 147 1151 C137.34 1151.15 127.68 1151.26 118.01 1151.33 C114.73 1151.36 111.44 1151.4 108.16 1151.45 C103.43 1151.53 98.7 1151.56 93.97 1151.59 C92.51 1151.62 91.05 1151.65 89.54 1151.68 C80.82 1151.68 75.97 1150.74 69 1145 C65.71 1143.13 62.39 1141.3 59.06 1139.5 C48.49 1133.76 48.49 1133.76 43.5 1130.69 C39 1128 34.43 1125.67 29.74 1123.36 C24.24 1120.64 19.38 1117.58 14.5 1113.88 C-17.29 1089.83 -52.85 1072.84 -92 1065 C-93.12 1064.76 -94.24 1064.52 -95.39 1064.27 C-107.28 1062.46 -119.6 1067.46 -130.91 1070.88 C-169.95 1082.54 -215.9 1078.32 -251.96 1059.36 C-268.52 1049.69 -283.44 1038.47 -296 1024 C-297.26 1022.93 -298.52 1021.86 -299.81 1020.75 C-304.46 1016.59 -308.29 1012.08 -312.26 1007.28 C-314.69 1004.37 -317.19 1001.55 -319.75 998.75 C-323.75 994.35 -327.38 989.72 -331 985 C-331.8 984.08 -332.61 983.15 -333.43 982.2 C-334.26 981.25 -335.09 980.3 -335.94 979.31 C-336.71 978.44 -337.48 977.57 -338.28 976.68 C-340 974 -340 974 -340 968 C-337.84 965.84 -332.22 966.76 -329.5 966.72 C-328.53 966.7 -327.55 966.68 -326.55 966.66 C-324.45 966.63 -322.36 966.59 -320.27 966.55 C-314.84 966.46 -309.42 966.36 -304 966.25 C-303.47 966.24 -303.47 966.24 -300.79 966.19 C-293.19 966.04 -285.6 965.79 -278 965.44 C-223.21 963.09 -176.36 973.41 -135 1011 C-128.16 1017.7 -121.46 1024.54 -114.79 1031.4 C-112.52 1033.74 -110.23 1036.06 -107.95 1038.38 C-106.61 1039.74 -105.27 1041.11 -103.9 1042.52 C-97.01 1048.67 -89.75 1050.84 -80.94 1053.19 C-79.05 1053.7 -77.16 1054.21 -75.21 1054.73 C-71.12 1055.73 -67.18 1056.52 -63 1057 C-66.33 1050.14 -71.18 1045.45 -76.55 1040.19 C-77.48 1039.27 -78.42 1038.34 -79.38 1037.39 C-82.35 1034.44 -85.33 1031.5 -88.31 1028.56 C-91.28 1025.63 -94.25 1022.69 -97.22 1019.75 C-99.06 1017.92 -100.9 1016.1 -102.75 1014.28 C-107.73 1009.36 -112.44 1004.32 -117 999 C-118.46 997.52 -119.94 996.06 -121.44 994.62 C-125.31 990.8 -128.69 986.76 -132.04 982.47 C-134.56 979.29 -137.28 976.3 -140 973.29 C-142.1 970.89 -144.05 968.4 -146 965.88 C-149.59 961.34 -153.55 957.72 -158 954 C-159.73 952.4 -161.46 950.8 -163.19 949.19 C-185.15 929.31 -210.98 912 -241.25 911.62 C-282.95 910.6 -321.86 900.01 -354 872 C-356.38 869.38 -358.72 866.71 -361 864 C-362.09 862.97 -363.19 861.94 -364.31 860.88 C-373.28 851.45 -379.75 840.34 -386 829 C-386.75 827.73 -387.49 826.45 -388.26 825.14 C-418.1 773.49 -418.1 773.49 -415 758 C-414 757 -414 757 -410.93 756.8 C-406.66 757.02 -403.22 757.9 -399.14 759.16 C-398.38 759.39 -398.38 759.39 -394.55 760.56 C-393.75 760.8 -393.75 760.8 -389.69 762.06 C-378.6 765.44 -367.53 768.73 -356.31 771.62 C-331.52 778.14 -306.57 786.27 -286 802 C-285.17 802.62 -284.33 803.25 -283.48 803.89 C-273.15 811.86 -263.21 820.86 -255 831 C-254.68 831.4 -254.68 831.4 -253.04 833.41 C-242.72 846.62 -234.33 861.15 -226.75 876.06 C-220.23 888.81 -214.29 898.41 -202 906 C-201.13 906.57 -200.25 907.13 -199.36 907.72 C-194.97 910.5 -191.26 912.72 -186 913 C-186.4 906.69 -189.61 901.7 -192.62 896.31 C-192.91 895.79 -192.91 895.79 -194.37 893.15 C-196.23 889.76 -198.12 886.38 -200 883 C-201.28 880.7 -202.57 878.39 -203.85 876.09 C-204.48 874.95 -205.12 873.81 -205.77 872.63 C-218.92 849.01 -231.32 825.18 -241.69 800.19 C-245.19 792.12 -249.87 785.12 -255 778 C-255.95 776.67 -256.91 775.33 -257.89 773.96 C-264.39 765.07 -271.36 756.92 -279 749 C-279.72 748.21 -280.44 747.41 -281.18 746.59 C-288.07 739.18 -295.75 736.35 -305.12 733.31 C-331.74 724.67 -357.35 713.48 -377 693 C-377.78 692.41 -378.55 691.82 -379.35 691.21 C-388.52 683.55 -395.16 672.3 -401 662 C-401.81 660.58 -402.63 659.16 -403.47 657.7 C-422.21 623.75 -426.15 585.4 -426.38 547.25 C-426.39 545.68 -426.4 544.11 -426.42 542.49 C-426.41 541.03 -426.4 539.58 -426.4 538.08 C-426.4 536.78 -426.39 535.49 -426.39 534.15 C-426 531 -426 531 -423 528 C-417.13 529.17 -414.73 531.24 -410.06 534.94 C-399.46 543.22 -388.57 550.94 -377.44 558.5 C-369.74 563.75 -362.3 569.22 -355 575 C-354.18 575.62 -353.36 576.23 -352.51 576.87 C-313.6 606.55 -291.59 652.97 -285.09 700.59 C-282.65 718.26 -279.51 732.19 -265 744 C-263.68 743.67 -262.36 743.34 -261 743 C-261.64 733.64 -263.68 724.7 -265.75 715.56 C-266.09 714.05 -266.42 712.54 -266.77 710.98 C-268.52 703.13 -270.42 695.36 -272.54 687.6 C-275.17 677.76 -276.93 667.86 -278.56 657.81 C-278.71 656.92 -278.71 656.92 -279.47 652.38 C-280.05 648.84 -280.64 645.31 -281.22 641.77 C-281.88 637.75 -282.55 633.73 -283.23 629.71 C-283.4 628.68 -283.58 627.65 -283.76 626.59 C-284.24 623.77 -284.72 620.95 -285.2 618.13 C-285.72 614.77 -286.18 611.4 -286.55 608.03 C-289.18 585.46 -299.97 552.43 -318.08 537.68 C-318.86 537.12 -318.86 537.12 -322.81 534.31 C-324.52 533.09 -326.22 531.86 -327.93 530.63 C-328.78 530.02 -329.63 529.41 -330.51 528.79 C-347.49 516.63 -360.44 505.53 -372 488 C-372.91 486.64 -373.83 485.28 -374.77 483.88 C-392.69 456.37 -395.59 426.98 -395 395 C-394.98 393.57 -394.96 392.14 -394.95 390.66 C-394.26 372.17 -389.94 353.57 -385.94 335.56 C-385.7 334.49 -385.47 333.41 -385.23 332.3 C-383.98 326.89 -382.85 322.13 -379 318 C-372.97 319.51 -370.58 324.22 -367 329 C-366.53 329.63 -366.53 329.63 -364.13 332.84 C-362.07 335.59 -360.01 338.34 -357.96 341.1 C-354.11 346.18 -350.08 351.1 -346 356 C-311.37 398.26 -291.61 441.01 -295.58 496.18 C-296.05 500.49 -296.75 504.73 -297.5 509 C-300.19 524.54 -301.39 535.02 -293 549 C-292.01 549 -291.02 549 -290 549 C-288.24 542.26 -287.63 535.6 -287.22 528.66 C-287.1 526.71 -286.98 524.76 -286.86 522.75 C-286.74 520.71 -286.62 518.67 -286.5 516.62 C-285.73 503.52 -284.84 490.46 -283.43 477.4 C-283 473.01 -282.75 468.65 -282.56 464.25 C-282.2 457.59 -281.22 451.31 -279.9 444.79 C-278.7 438.42 -277.71 432.03 -276.75 425.62 C-276.56 424.44 -276.38 423.25 -276.18 422.02 C-275.16 415.08 -275 409.01 -276 402 C-276.13 400.68 -276.26 399.37 -276.39 398.01 C-278.51 378.33 -280.85 360.4 -294 345 C-317.51 316.8 -329.38 287.38 -326.73 250.17 C-323.08 218.36 -306.31 170.31 -283 147 C-281.68 147.33 -280.36 147.66 -279 148 C-276.91 152.44 -275.82 156.79 -274.7 161.58 C-273.15 167.83 -270.88 173.55 -268.31 179.44 C-267.42 181.55 -266.52 183.66 -265.63 185.77 C-265.19 186.82 -264.74 187.87 -264.29 188.94 C-248.16 227.26 -238.83 266.41 -251 307 C-251.43 308.52 -251.87 310.03 -252.31 311.6 C-255.57 322.22 -260.13 332.11 -265.04 342.06 C-269.85 352.02 -269.5 357.35 -266 368 C-264.68 367.67 -263.36 367.34 -262 367 C-260.57 363.5 -259.42 360.15 -258.35 356.54 C-258.01 355.46 -257.68 354.38 -257.33 353.27 C-256.61 350.94 -255.89 348.61 -255.18 346.28 C-253.31 340.15 -251.38 334.04 -249.45 327.93 C-249.06 326.72 -248.68 325.51 -248.29 324.26 C-240.61 300.02 -231.14 276.44 -221.47 252.93 C-212.17 230.11 -204.36 204.28 -213 180 C-214.24 177.29 -215.53 174.6 -216.88 171.94 C-229.06 146.6 -230.56 118.72 -222 92 C-219.94 86.51 -217.61 81.25 -215 76 C-214.53 75.03 -214.06 74.06 -213.57 73.06 C-209.51 65.17 -204.29 58.11 -199 51 C-198.57 50.42 -198.57 50.42 -196.38 47.46 C-191.91 41.54 -187.36 36.15 -182 31 C-180.91 29.74 -179.81 28.48 -178.69 27.19 C-174.33 22.24 -169.7 17.63 -165 13 C-164.56 12.56 -164.56 12.56 -162.36 10.35 C-159.99 7.99 -157.78 5.85 -155 4 C-154.34 4.16 -154.34 4.16 -151 5 C-150.59 8.79 -150.45 12.33 -150.44 16.12 C-150.25 26.23 -149.55 36.14 -148.44 46.19 C-147.31 56.99 -146.65 67.7 -146.56 78.56 C-146.54 79.8 -146.52 81.04 -146.5 82.32 C-146.51 90.03 -147.73 96.59 -150.04 103.93 C-151.11 107.37 -151.76 110.76 -152.31 114.31 C-157.18 139.44 -172.99 160.55 -189.16 179.67 C-192.87 184.38 -194.55 188.1 -195 194 C-194.67 194.66 -194.34 195.32 -194 196 C-186.14 194.03 -182.04 184.57 -177.88 178.06 C-170.09 165.91 -161.72 154.27 -152.62 143.06 C-141.18 128.89 -135.65 115.4 -130.54 97.98 C-120.61 65.77 -99.14 38.91 -69.24 23 C-55.31 15.91 -41.33 10.23 -26.38 5.69 C-25.66 5.47 -25.66 5.47 -22.04 4.35 C-7.44 -0.14 -7.44 -0.14 0 0 Z " fill="#A77C36" transform="translate(713,553)"/>
<path d="M0 0 C5.62 0.5 5.62 0.5 10.62 -0.5 C18.55 -1.01 24.87 0.12 32.46 2.43 C35.97 3.33 39.14 3.8 42.72 4.22 C50.5 5.36 56.82 8.54 63.75 12.12 C66.32 13.41 68.9 14.69 71.48 15.97 C72.71 16.58 73.94 17.2 75.22 17.83 C82.54 21.41 90.08 24.43 97.62 27.5 C100.02 28.5 102.41 29.5 104.81 30.51 C107.39 31.59 109.98 32.67 112.56 33.75 C113.77 34.26 114.98 34.77 116.23 35.29 C127.23 39.86 137.84 43.45 149.62 45.5 C152.34 46.2 155.04 46.9 157.75 47.62 C166.75 49.9 173.12 50.6 181.62 46.5 C183.28 46.09 184.92 45.67 186.62 45.25 C187.95 44.67 189.26 44.1 190.62 43.5 C190.75 40.06 190.75 40.06 189.62 36.5 C189.3 35.18 188.97 33.86 188.62 32.5 C193.98 30.79 199.06 30.01 204.65 29.5 C205.53 29.42 205.53 29.42 209.96 29 C211.81 28.84 213.66 28.67 215.56 28.5 C217.46 28.32 219.36 28.15 221.31 27.97 C232.9 26.9 244.5 25.93 256.1 25 C262.44 24.43 268.74 23.69 275.06 22.94 C282.51 22.06 289.96 21.21 297.44 20.62 C298.72 20.52 300.01 20.42 301.33 20.32 C306.73 20.61 309.93 23.74 314.06 27 C318.95 30.75 322.7 33.02 328.62 34.5 C328.62 35.16 328.62 35.82 328.62 36.5 C321.41 39.86 314.29 41.62 306.44 42.88 C305.19 43.08 303.95 43.28 302.67 43.49 C272.03 48.24 240.87 51.44 209.91 53.18 C205.12 53.47 200.39 53.92 195.62 54.5 C195.95 55.82 196.28 57.14 196.62 58.5 C206.76 63.19 217.6 65.83 228.34 68.75 C232.62 69.92 236.84 71.19 241.06 72.54 C247.68 74.59 254.34 76.03 261.12 77.38 C263.66 77.89 266.19 78.4 268.72 78.91 C270.02 79.17 271.31 79.43 272.64 79.7 C279.28 81.03 285.92 82.39 292.56 83.75 C293.17 83.87 293.17 83.87 296.26 84.5 C297.4 84.73 298.54 84.96 299.71 85.2 C300.71 85.41 301.71 85.61 302.74 85.82 C305.62 86.5 305.62 86.5 308.72 87.54 C312.94 88.93 317.14 89.26 321.56 89.75 C330.38 90.78 339.14 92.03 347.9 93.45 C377.55 98.22 407.38 101.7 437.21 105.11 C440.11 105.44 443.01 105.78 445.9 106.11 C460.73 107.8 475.52 108.57 490.44 109.01 C491.86 109.05 493.29 109.09 494.75 109.14 C501.98 109.35 509.2 109.53 516.43 109.68 C519.1 109.74 521.78 109.81 524.45 109.88 C525.07 109.88 525.07 109.88 528.21 109.93 C535.28 110.12 540.51 110.38 545.62 115.5 C546.7 120.88 546.76 125.96 546.75 131.42 C546.75 131.97 546.75 131.97 546.76 134.8 C546.76 138.54 546.76 142.29 546.75 146.04 C546.76 148.73 546.76 151.41 546.76 154.1 C546.76 161.43 546.76 168.76 546.76 176.09 C546.76 183.83 546.76 191.57 546.76 199.3 C546.76 212.38 546.76 225.45 546.76 238.52 C546.75 251.8 546.75 265.08 546.76 278.35 C546.81 418.03 546.81 418.03 545.69 477.08 C545.56 484.08 545.45 491.07 545.34 498.06 C544.92 523.84 543.83 549.35 540.31 574.9 C539.82 578.94 539.46 582.86 539.22 586.91 C532.34 688.99 490.49 837.63 415.62 912.5 C411.16 912.68 406.77 912.73 402.3 912.7 C401.64 912.69 401.64 912.69 398.28 912.69 C394.02 912.68 389.76 912.65 385.5 912.62 C382.62 912.61 379.74 912.61 376.86 912.6 C369.78 912.58 362.7 912.54 355.62 912.5 C356.55 911.42 357.48 910.35 358.44 909.24 C366.46 899.83 373.61 889.67 380.62 879.5 C383.91 874.76 387.21 870.04 390.69 865.44 C393.83 861.22 396.75 856.91 399.62 852.5 C400.14 851.72 400.14 851.72 402.75 847.75 C407.25 840.65 411.35 833.3 415.5 825.99 C418.41 820.86 421.39 815.77 424.38 810.69 C429.15 802.45 433.51 794.08 437.62 785.5 C438.18 784.36 438.74 783.22 439.31 782.04 C441.72 776.97 443.87 771.98 445.56 766.62 C446.97 762.18 448.7 758.12 450.75 753.94 C454.13 746.86 456.95 739.65 459.69 732.31 C460.09 731.25 460.49 730.19 460.9 729.1 C476.16 687.6 486.4 643.37 492.22 599.57 C492.6 596.67 493.01 593.77 493.43 590.87 C495.41 576.21 496.56 561.52 497.62 546.76 C497.74 545.15 497.86 543.53 497.98 541.87 C498.08 540.43 498.18 538.98 498.28 537.49 C498.49 535.08 498.76 532.67 499.13 530.28 C499.85 524.75 500 519.2 500.18 513.62 C500.22 512.36 500.26 511.09 500.31 509.78 C500.72 496.08 500.78 482.38 500.76 468.67 C500.75 464.42 500.76 460.17 500.76 455.92 C500.76 453.2 500.76 450.47 500.76 447.75 C500.76 446.49 500.76 445.23 500.76 443.93 C500.75 438.95 500.6 434.4 499.62 429.5 C499.53 425.76 499.49 422.04 499.49 418.3 C499.49 417.13 499.49 415.97 499.49 414.77 C499.49 410.78 499.49 406.8 499.5 402.81 C499.5 401.4 499.5 399.99 499.5 398.53 C499.52 373.28 499.76 348.04 500.02 322.8 C500.42 284.17 500.77 245.54 500.86 206.91 C500.87 202.36 500.88 197.81 500.91 193.26 C500.94 186.97 500.95 180.67 500.95 174.38 C500.97 172.5 500.98 170.62 500.99 168.68 C500.99 167.83 500.99 167.83 500.98 163.52 C500.98 162.78 500.98 162.78 500.99 159.02 C500.62 155.5 500.62 155.5 497.62 152.5 C490.45 150.06 483.01 149.88 475.5 149.44 C473.02 149.28 470.54 149.12 468.05 148.96 C466.83 148.89 465.6 148.81 464.34 148.73 C446.8 147.63 446.8 147.63 439.38 146.62 C428.98 145.27 418.58 144.09 408.17 142.9 C404.51 142.49 400.85 142.06 397.2 141.64 C394.78 141.36 392.36 141.09 389.94 140.81 C388.81 140.68 387.68 140.55 386.52 140.41 C381.2 139.81 375.98 139.34 370.62 139.5 C370.45 144.1 370.52 146.28 372.62 150.5 C376.34 151.61 376.34 151.61 381.62 152.5 C382.66 152.68 383.69 152.85 384.75 153.04 C407.43 156.8 430.25 158.89 453.14 160.8 C454.3 160.9 455.46 161 456.66 161.1 C458.85 161.29 461.04 161.47 463.23 161.64 C468.86 162.12 474.29 162.59 479.62 164.5 C482.62 169.5 482.62 169.5 482.62 173.5 C454.81 174.08 428.14 173.47 400.59 169.11 C395.15 168.28 389.71 167.67 384.25 167.06 C358.38 163.99 332.66 159.89 307.09 154.93 C301.06 153.76 295.02 152.69 288.97 151.66 C274.26 149.13 259.78 145.89 245.28 142.38 C241.85 141.55 238.41 140.77 234.97 139.99 C166.56 124.35 98.8 100 36.38 67.91 C33.67 66.52 30.94 65.16 28.2 63.81 C23.62 61.5 23.62 61.5 18.62 58.5 C12.31 58.62 8.19 59.87 2.88 63.19 C-35.69 85.81 -79.07 102.37 -121.4 116.5 C-123.42 117.18 -125.44 117.87 -127.45 118.57 C-146.08 125.02 -165.01 130.22 -184.06 135.25 C-185.25 135.57 -186.44 135.88 -187.67 136.21 C-205.14 140.83 -222.68 144.88 -240.38 148.5 C-242.05 148.84 -243.72 149.19 -245.45 149.54 C-249.69 150.4 -253.94 151.24 -258.19 152.06 C-259.7 152.35 -261.2 152.65 -262.76 152.95 C-276.32 155.55 -289.93 157.8 -303.58 159.91 C-307.38 160.5 -311.18 161.12 -314.98 161.74 C-335.01 165 -355.1 167.53 -375.25 169.86 C-378.78 170.3 -382.3 170.79 -385.81 171.31 C-400.59 173.47 -414.9 173.86 -429.81 173.69 C-432.12 173.67 -434.42 173.66 -436.72 173.65 C-442.27 173.61 -447.82 173.56 -453.38 173.5 C-453.06 170.12 -453.06 170.12 -452.38 166.5 C-449.38 164.5 -449.38 164.5 -446.12 163.81 C-442.38 162.5 -442.38 162.5 -438.94 159.06 C-431.61 151.73 -422.24 151.59 -412.38 150.5 C-412.38 149.84 -412.38 149.18 -412.38 148.5 C-418.23 148.78 -424.08 149.08 -429.94 149.38 C-431.58 149.45 -433.22 149.53 -434.9 149.61 C-462.94 151.06 -462.94 151.06 -468.38 156.5 C-468.73 160.89 -468.84 165.01 -468.77 169.4 C-468.77 170.72 -468.76 172.04 -468.75 173.4 C-468.73 177.78 -468.68 182.16 -468.63 186.54 C-468.61 189.63 -468.6 192.72 -468.58 195.81 C-468.54 202.22 -468.5 208.63 -468.45 215.04 C-468.38 223.79 -468.34 232.55 -468.33 241.31 C-468.33 242.66 -468.33 244.01 -468.33 245.4 C-468.33 248.11 -468.32 250.83 -468.32 253.55 C-468.31 260.52 -468.29 267.49 -468.27 274.45 C-468.27 275.16 -468.27 275.16 -468.26 278.72 C-468.21 298.8 -468.15 318.89 -468.09 338.97 C-468.03 356.84 -467.98 374.71 -467.94 392.58 C-467.91 405.33 -467.87 418.08 -467.83 430.84 C-467.81 438.38 -467.79 445.92 -467.77 453.47 C-467.66 512.02 -467.66 512.02 -465.63 538.85 C-465.24 544.46 -464.95 550.06 -464.65 555.67 C-464.4 559.13 -463.97 562.46 -463.38 565.88 C-462.5 570.97 -462.22 575.9 -462.06 581.06 C-461.53 593.03 -459.22 604.62 -456.97 616.36 C-456.22 620.3 -455.55 624.24 -454.88 628.19 C-451.5 647.14 -447.5 665.71 -442.28 684.25 C-441.37 687.5 -440.49 690.76 -439.62 694.03 C-436.57 705.31 -433.18 716.28 -429 727.21 C-427.48 731.21 -426.12 735.24 -424.81 739.31 C-422.89 745.16 -420.65 750.76 -418.16 756.39 C-416.34 760.59 -414.62 764.83 -412.9 769.07 C-408.05 780.95 -402.51 792.22 -396.38 803.5 C-394.86 806.4 -393.36 809.3 -391.86 812.2 C-384.68 826.07 -377.56 839.84 -368.38 852.5 C-363.01 860.19 -357.72 867.9 -352.69 875.81 C-343.87 889.64 -333.75 902.62 -323.19 915.16 C-321.38 917.5 -321.38 917.5 -319.38 921.5 C-327.4 921.95 -335.41 922.27 -343.44 922.49 C-346.17 922.58 -348.89 922.7 -351.61 922.86 C-374.13 924.12 -374.13 924.12 -381.78 917.94 C-385.16 913.29 -387.78 908.63 -390.38 903.5 C-392.1 900.9 -393.86 898.32 -395.67 895.78 C-397.3 893.33 -398.94 890.89 -400.56 888.44 C-401.42 887.15 -402.28 885.85 -403.17 884.52 C-409.23 875.35 -414.94 866.06 -420.38 856.5 C-420.85 855.71 -420.85 855.71 -423.27 851.74 C-426.48 846.4 -429.39 840.92 -432.25 835.38 C-432.51 834.87 -432.51 834.87 -433.84 832.3 C-435.36 829.37 -436.87 826.44 -438.38 823.5 C-439.07 822.16 -439.76 820.82 -440.47 819.43 C-451.05 798.61 -460.56 777.51 -468.38 755.5 C-468.89 754.09 -469.41 752.67 -469.94 751.21 C-474.8 737.77 -479.1 724.14 -483.38 710.5 C-483.7 709.47 -484.03 708.44 -484.37 707.38 C-488.92 692.92 -492.2 678.38 -495.02 663.49 C-495.86 659.02 -496.8 654.61 -497.86 650.19 C-499.73 642.25 -501.05 634.23 -502.38 626.19 C-502.64 624.61 -502.9 623.02 -503.17 621.4 C-504.96 610.44 -506.51 599.49 -507.79 588.46 C-508.27 584.39 -508.83 580.36 -509.44 576.31 C-510.66 567.45 -511.12 558.5 -511.68 549.58 C-511.72 548.97 -511.72 548.97 -511.91 545.9 C-511.98 544.81 -512.04 543.73 -512.11 542.61 C-512.38 539.5 -512.38 539.5 -512.86 536.99 C-520.18 487.47 -515.54 433.64 -515.54 383.7 C-515.54 378.13 -515.55 372.55 -515.55 366.98 C-515.56 347.5 -515.56 328.02 -515.56 308.53 C-515.56 291.42 -515.57 274.3 -515.58 257.18 C-515.6 240.53 -515.6 223.88 -515.6 207.23 C-515.6 197.92 -515.61 188.61 -515.62 179.3 C-515.63 170.59 -515.63 161.89 -515.62 153.18 C-515.62 149.98 -515.62 146.78 -515.63 143.58 C-515.63 139.24 -515.63 134.89 -515.62 130.54 C-515.63 129.26 -515.63 127.99 -515.64 126.67 C-515.6 117.96 -515.6 117.96 -513.38 113.5 C-508.89 111.26 -506.46 111.23 -501.49 111.19 C-500.68 111.18 -500.68 111.18 -496.58 111.12 C-494.82 111.1 -493.06 111.08 -491.25 111.06 C-460.67 110.52 -430.25 108.13 -399.84 104.86 C-396.39 104.5 -392.92 104.17 -389.46 103.86 C-373.71 102.38 -358.14 100.17 -342.51 97.7 C-331.43 95.95 -320.36 94.41 -309.23 93.08 C-303.95 92.45 -298.69 91.74 -293.44 90.95 C-291.4 90.65 -289.36 90.37 -287.31 90.11 C-280.95 89.25 -274.94 87.87 -268.75 86.12 C-259.51 83.59 -250.29 82.15 -240.8 80.93 C-234.33 80.07 -228.55 78.72 -222.38 76.5 C-220.15 75.94 -217.93 75.42 -215.69 74.94 C-212.56 74.26 -209.57 73.57 -206.55 72.51 C-203.38 71.5 -203.38 71.5 -197.49 70.65 C-189.63 69.5 -182.16 67.37 -174.56 65.12 C-173.21 64.74 -171.86 64.35 -170.46 63.95 C-163.7 61.98 -157.64 59.76 -151.38 56.5 C-148.2 55.7 -148.2 55.7 -145.06 55.19 C-137.35 53.68 -130.24 51.03 -122.92 48.22 C-118.44 46.52 -113.92 45.01 -109.38 43.5 C-95.78 38.93 -82.54 33.81 -69.38 28.12 C-67.62 27.37 -65.87 26.62 -64.07 25.85 C-46.73 18.4 -29.56 10.66 -12.56 2.47 C-7.27 -0.02 -5.96 -0.55 0 0 Z " fill="#A77C36" transform="translate(1238.375,556.5)"/>
<path d="M0 0 C8.6 3.02 16.77 7.11 25 11 C31.76 14.17 38.55 17.02 45.5 19.75 C54.02 23.12 62.26 26.9 70.5 30.89 C75.84 33.4 81.27 35.55 86.8 37.61 C90 39 90 39 93.04 41.05 C96.06 43.04 98.53 43.98 102 44.94 C107.77 46.62 113.4 48.52 119.04 50.59 C122.03 51.65 125.03 52.66 128.05 53.63 C144.81 59.13 144.81 59.13 151 66 C151.33 66.33 151.66 66.66 152 67 C152.37 69.66 152.7 72.33 153 75 C153.79 74.9 153.79 74.9 157.81 74.38 C163 74 163 74 166 76 C170.36 75.68 173.05 74.98 177 73 C179.94 73 179.94 73 183 74 C185.88 76.88 185.88 76.88 188 80 C188 80.99 188 81.98 188 83 C47.75 83 -92.5 83 -237 83 C-237 82.67 -237 82.34 -237 82 C-234.16 81.28 -231.33 80.57 -228.48 79.88 C-216.62 76.89 -205.34 72.54 -194 68 C-192.46 68.01 -190.92 68.02 -189.34 68.04 C-176.99 67.95 -164.88 63.61 -154.61 56.93 C-142.41 50.41 -128.14 46.89 -114.93 42.94 C-111.01 41.68 -107.27 40.11 -103.49 38.48 C-99.07 36.61 -94.6 34.88 -90.12 33.12 C-84.16 30.76 -78.38 28.28 -72.69 25.31 C-64.09 20.87 -55.06 18.11 -45.75 15.56 C-39.16 13.4 -32.86 10.48 -27.59 5.91 C-24.52 3.65 -22.1 3.09 -18.38 2.38 C-3.23 -0.57 -3.23 -0.57 0 0 Z " fill="#A77C36" transform="translate(1260,647)"/>
<path d="M0 0 C11.58 9.99 22.2 20.84 31.62 32.88 C32.29 33.53 32.94 34.19 33.62 34.88 C38.78 17.76 41.69 0.48 44.62 -17.12 C54.19 -17.12 63.76 -17.12 73.62 -17.12 C74.83 22.2 75.17 61.54 75.62 100.88 C75.13 100.87 75.13 100.87 72.65 100.85 C65.71 100.83 58.85 100.91 51.93 101.46 C29.06 102.62 29.06 102.62 22.98 97.76 C18.84 92.3 16.65 86.12 14.58 79.64 C13.35 76.08 11.59 73.19 9.44 70.12 C8.81 69.24 8.19 68.35 7.55 67.43 C4.05 62.79 0.4 58.3 -3.38 53.88 C-3.7 53.48 -3.7 53.48 -5.34 51.5 C-20.18 34.03 -41.52 21.59 -64.38 18.88 C-89.99 17.6 -114.06 24.54 -133.38 41.88 C-185.26 89.28 -194.93 172.07 -198.03 238.41 C-201.05 317.55 -202.36 411.51 -163.38 482.88 C-162.57 484.4 -161.76 485.92 -160.93 487.5 C-156.36 496 -151.73 503.6 -145.38 510.88 C-144.12 512.4 -142.86 513.93 -141.56 515.5 C-127.56 530.91 -107.59 538.35 -87.38 540.88 C-78.8 540.88 -70.21 540.88 -61.38 540.88 C-61.38 558.03 -61.38 575.2 -61.38 592.88 C-70.83 594.23 -79.49 595.23 -88.94 595.19 C-90.15 595.18 -91.36 595.18 -92.61 595.17 C-135.97 594.62 -172.37 577.47 -203.38 547.88 C-204.18 547.11 -204.98 546.35 -205.8 545.57 C-211.49 540.05 -216.49 534.11 -221.38 527.88 C-222.27 526.76 -223.16 525.64 -224.08 524.5 C-289.43 440.61 -304.1 319.19 -291.62 216.56 C-283.53 154.05 -263.29 90.21 -224.38 39.88 C-223.69 38.98 -223 38.08 -222.3 37.15 C-217.03 30.39 -211.27 24.1 -205.38 17.88 C-204.42 16.87 -203.47 15.87 -202.5 14.83 C-146.41 -42.89 -63 -51.65 0 0 Z " fill="#A77C36" transform="translate(1267.375,802.125)"/>
<path d="M0 0 C36.76 40.26 46.33 94.45 44.94 147.31 C42.75 190.33 28.6 233 -2.85 263.44 C-13.54 273 -25.25 279.96 -38.06 286.31 C-35.23 289.63 -32.4 292.93 -29.49 296.17 C2.25 332.08 17.15 382.02 34.57 425.85 C79.76 539.54 79.76 539.54 104 550.12 C107.52 551.54 110.27 552.35 114.08 552.78 C115.35 553.28 116.63 553.79 117.94 554.31 C118.85 558.49 118.85 558.49 118.72 563.91 C118.69 565.85 118.67 567.78 118.64 569.77 C118.57 571.83 118.51 573.88 118.44 575.94 C118.4 578 118.36 580.06 118.33 582.12 C118.23 587.19 118.1 592.25 117.94 597.31 C104.55 597.75 91.17 598.09 77.78 598.3 C71.56 598.4 65.34 598.53 59.13 598.75 C53.12 598.95 47.12 599.07 41.11 599.12 C38.83 599.15 36.54 599.22 34.26 599.32 C27.17 599.63 20.75 599.63 13.94 597.31 C8.91 591.53 6.44 585.49 3.94 578.31 C2.9 575.98 1.84 573.64 0.75 571.33 C-0.2 569.08 -1.14 566.82 -2.06 564.56 C-2.6 563.28 -3.13 561.99 -3.68 560.67 C-20.71 519.15 -36 476.86 -51.4 434.72 C-67.25 391.37 -67.25 391.37 -75.38 371.25 C-75.94 369.84 -76.51 368.43 -77.09 366.97 C-92.77 328.76 -92.77 328.76 -107.44 321 C-120.33 316.3 -133.62 316.13 -147.19 315.75 C-148.62 315.71 -150.05 315.66 -151.53 315.62 C-155.04 315.51 -158.55 315.41 -162.06 315.31 C-161.95 336.84 -161.84 358.36 -161.72 379.89 C-161.67 389.88 -161.61 399.88 -161.57 409.88 C-161.52 419.54 -161.46 429.2 -161.41 438.86 C-161.39 442.53 -161.37 446.2 -161.35 449.87 C-160.99 527.17 -160.99 527.17 -146.67 542.05 C-134.92 552.25 -119.94 553.17 -105.06 554.31 C-105.06 568.5 -105.06 582.69 -105.06 597.31 C-168.75 597.31 -232.44 597.31 -298.06 597.31 C-298.06 583.12 -298.06 568.93 -298.06 554.31 C-291.79 553.65 -285.52 552.99 -279.06 552.31 C-269.19 549.89 -261.44 546.99 -254.31 539.38 C-244.19 521.1 -243.91 499.98 -243.93 479.63 C-243.93 478.75 -243.93 478.75 -243.92 474.27 C-243.92 469.39 -243.92 464.5 -243.92 459.61 C-243.92 454.33 -243.91 449.05 -243.91 443.76 C-243.9 433.43 -243.9 423.09 -243.9 412.75 C-243.89 404.34 -243.89 395.93 -243.89 387.52 C-243.88 363.66 -243.88 339.8 -243.88 315.94 C-243.88 314.66 -243.88 313.37 -243.88 312.05 C-243.88 311.4 -243.88 311.4 -243.88 308.15 C-243.88 287.3 -243.87 266.45 -243.85 245.6 C-243.84 224.17 -243.83 202.75 -243.83 181.32 C-243.83 169.3 -243.83 157.28 -243.82 145.25 C-243.81 135.02 -243.81 124.78 -243.82 114.54 C-243.82 109.33 -243.82 104.11 -243.81 98.89 C-243.8 93.22 -243.81 87.55 -243.82 81.88 C-243.81 80.25 -243.8 78.62 -243.8 76.94 C-243.86 57.54 -243.94 31.87 -258.31 16.94 C-270.26 8.57 -283.88 7.6 -298.06 6.31 C-298.06 -8.21 -298.06 -22.73 -298.06 -37.69 C-295 -37.87 -291.93 -38.05 -288.77 -38.24 C-287.7 -38.3 -286.64 -38.36 -285.54 -38.43 C-279.99 -38.76 -274.45 -39.08 -268.9 -39.4 C-258.32 -40.02 -247.75 -40.63 -237.18 -41.34 C-58.71 -53.29 -58.71 -53.29 0 0 Z M-162.06 9.31 C-162.06 93.13 -162.06 176.95 -162.06 263.31 C-128.76 263.31 -95.72 262.24 -69.2 239.46 C-42.94 213.05 -42.09 168.86 -41.99 133.93 C-42.21 101.73 -43.66 62.86 -66.44 37.69 C-67.3 36.9 -68.17 36.12 -69.06 35.31 C-69.71 34.68 -69.71 34.68 -73 31.5 C-98.21 9.41 -130.31 9.31 -162.06 9.31 Z " fill="#A77C36" transform="translate(1462.0625,958.6875)"/>
<path d="M0 0 C30.69 0 61.38 0 93 0 C93 32.68 93 32.68 90 42 C84.96 45.66 80.07 46.17 74 47 C65.21 51.57 61.19 56.5 57.88 65.83 C56.07 72.35 55.99 79.21 55.75 85.94 C55.49 89.31 55.49 89.31 54 95 C49.45 97.65 49.45 97.65 44 99 C42.47 99.41 40.94 99.81 39.37 100.23 C37.88 100.55 36.4 100.86 34.88 101.19 C33.39 101.51 31.9 101.83 30.37 102.17 C19.88 104.17 11 104 0 104 C0 69.68 0 35.36 0 0 Z " fill="#A77C36" transform="translate(1313,1105)"/>
<path d="M0 0 C22.73 0 22.73 0 33 2 C34.03 2.2 35.07 2.4 36.13 2.6 C42.22 4.24 44.94 6.71 48.06 11.94 C51.99 19.54 53.28 25.7 53.2 34.21 C53.19 35.29 53.19 36.37 53.19 37.48 C53.18 40.93 53.15 44.37 53.12 47.81 C53.11 50.15 53.11 52.49 53.1 54.83 C53.08 60.55 53.04 66.28 53 72 C51.27 72.1 49.54 72.2 47.75 72.3 C45.36 72.45 42.96 72.6 40.56 72.75 C40 72.78 40 72.78 37.15 72.94 C24.5 73.76 12.72 75.96 0 78 C0 52.26 0 26.52 0 0 Z " fill="#A77C36" transform="translate(1313,1287)"/>
<path d="M0 0 C8.17 2.04 13.55 10.79 18.65 17.14 C21.01 20.02 23.48 22.76 26 25.5 C39.05 39.74 50.53 55.15 60 72 C60.31 72.55 60.31 72.55 61.9 75.35 C77.61 104.7 80.02 141.91 72 174 C71.8 176.16 71.64 178.33 71.5 180.5 C71.26 184.21 70.91 187.38 70 191 C63.1 192.45 55.91 192.35 49.47 189.37 C46.15 187.07 43.09 184.61 40 182 C38.88 181.17 37.76 180.34 36.61 179.48 C12.31 161.33 -6.39 137.66 -14 108 C-14.26 107.06 -14.51 106.12 -14.78 105.15 C-23.09 72.68 -14.95 33.73 -3 3 C-2.01 2.01 -1.02 1.02 0 0 Z " fill="#A77C36" transform="translate(732,1458)"/>
<path d="M0 0 C0.99 0.33 1.98 0.66 3 1 C7.52 12.42 9.78 24.96 12 37 C12.18 37.99 12.37 38.97 12.56 39.99 C19.29 76.91 18.31 112.75 -3 145 C-14.09 160.62 -26.98 174.32 -43 185 C-46.09 185.23 -46.09 185.23 -49.86 185.2 C-51.2 185.19 -52.54 185.18 -53.93 185.18 C-55.33 185.16 -56.74 185.14 -58.19 185.12 C-59.6 185.12 -61.02 185.11 -62.48 185.1 C-65.99 185.07 -69.49 185.04 -73 185 C-73.28 183.19 -73.55 181.39 -73.84 179.52 C-74.21 177.14 -74.57 174.76 -74.94 172.38 C-75.12 171.19 -75.3 170 -75.49 168.77 C-75.67 167.62 -75.84 166.46 -76.03 165.27 C-76.11 164.74 -76.11 164.74 -76.52 162.07 C-76.84 160.01 -77.18 157.96 -77.54 155.9 C-82.89 121.88 -69.4 84.48 -49.94 57.06 C-48.64 55.36 -47.33 53.67 -46 52 C-45.29 51.1 -44.58 50.2 -43.86 49.28 C-39.22 43.51 -34.35 38 -29.34 32.55 C-26.17 29.09 -23.09 25.54 -20 22 C-18.5 20.35 -17 18.71 -15.5 17.06 C-12.57 13.83 -9.82 10.54 -7.19 7.06 C-4 3 -4 3 0 0 Z " fill="#A77C36" transform="translate(1769,1459)"/>
<path d="M0 0 C10.17 3.98 20.4 7.13 30.95 9.92 C35.4 11.32 35.4 11.32 38.4 14.32 C32.1 24.82 20.85 29.61 10.4 35.32 C7.88 36.76 5.36 38.2 2.84 39.64 C0.03 41.2 -2.78 42.77 -5.6 44.32 C-6.44 44.79 -7.29 45.26 -8.16 45.74 C-27.4 56.35 -47.03 64.68 -68.6 69.32 C-69.92 69.65 -71.24 69.98 -72.6 70.32 C-106.85 73.83 -139.07 70.89 -169.22 53.95 C-169.8 53.63 -169.8 53.63 -172.71 52.03 C-177.93 49.11 -183 46.13 -187.87 42.66 C-197.74 35.69 -204.04 33.59 -215.93 33.66 C-217.35 33.65 -218.76 33.64 -220.22 33.63 C-224.88 33.6 -229.54 33.61 -234.2 33.62 C-237.43 33.6 -240.67 33.59 -243.91 33.57 C-252.42 33.53 -260.93 33.52 -269.43 33.52 C-278.12 33.51 -286.81 33.47 -295.5 33.43 C-312.53 33.37 -329.56 33.34 -346.6 33.32 C-343.34 30.07 -339.1 29.29 -334.79 27.82 C-329.67 26.08 -324.62 24.33 -319.6 22.32 C-316.61 22.12 -313.61 22.04 -310.61 22.02 C-308.77 22 -306.93 21.99 -305.04 21.97 C-303.02 21.96 -301.01 21.95 -299 21.94 C-296.92 21.93 -294.84 21.91 -292.77 21.89 C-287.29 21.85 -281.81 21.81 -276.32 21.78 C-267.6 21.73 -258.88 21.66 -250.16 21.59 C-247.15 21.57 -244.13 21.55 -241.11 21.54 C-232.14 21.47 -223.18 21.35 -214.21 21.03 C-212.75 20.98 -211.29 20.93 -209.78 20.87 C-198.37 19.37 -188.56 11.82 -179.16 5.62 C-172.82 1.53 -166.25 -2.12 -159.6 -5.68 C-158.44 -6.3 -157.29 -6.91 -156.1 -7.55 C-103.7 -33.78 -51.37 -20.39 0 0 Z " fill="#A77C36" transform="translate(1946.59912109375,1688.677490234375)"/>
<path d="M0 0 C1.54 0.45 3.09 0.89 4.68 1.35 C26.15 8.01 45.21 19.32 64.07 31.31 C79.32 40.11 97.6 38.08 114.59 37.82 C118.82 37.77 123.05 37.73 127.28 37.7 C133.89 37.64 140.49 37.57 147.09 37.45 C152.48 37.36 157.86 37.31 163.25 37.28 C166.24 37.25 169.24 37.19 172.23 37.12 C186.91 37.09 197.61 40.48 211 46 C212.69 46.56 214.39 47.12 216.13 47.7 C216.77 47.91 216.77 47.91 220 49 C220 49.33 220 49.66 220 50 C218.31 50 216.62 50.01 214.88 50.01 C198.88 50.05 182.89 50.11 166.9 50.18 C158.68 50.22 150.46 50.26 142.24 50.27 C134.3 50.29 126.36 50.32 118.41 50.37 C115.39 50.38 112.37 50.39 109.35 50.39 C70.57 50.41 70.57 50.41 54.62 61.94 C48.44 66.04 41.96 69.41 35.38 72.81 C34.16 73.45 32.94 74.08 31.69 74.73 C13.44 84.09 -3.47 88.43 -24 89 C-24.87 89.03 -24.87 89.03 -29.3 89.16 C-57.48 89.61 -84.22 82.7 -109.44 70.31 C-110.7 69.7 -111.97 69.08 -113.27 68.45 C-122.58 63.85 -131.33 58.71 -140 53 C-142.64 51.4 -145.28 49.82 -147.94 48.25 C-163.29 39.06 -163.29 39.06 -166 35 C-165.67 33.35 -165.34 31.7 -165 30 C-161.57 28.32 -161.57 28.32 -156.92 26.84 C-155.21 26.28 -153.51 25.72 -151.75 25.14 C-149.92 24.56 -148.08 23.98 -146.19 23.38 C-142.41 22.14 -138.64 20.9 -134.88 19.65 C-133.02 19.03 -131.16 18.42 -129.25 17.79 C-122.3 15.42 -115.49 12.77 -108.69 10 C-73.63 -4.08 -36.89 -11.13 0 0 Z " fill="#A77C36" transform="translate(688,1672)"/>
<path d="M0 0 C11.94 -0.16 23.87 -0.29 35.81 -0.36 C41.36 -0.4 46.9 -0.45 52.45 -0.53 C98.79 -1.18 98.79 -1.18 121 7 C126.06 8.69 130.04 9.18 135.38 8.91 C141.26 8.71 147.13 8.55 153.02 8.57 C154.37 8.57 155.71 8.57 157.1 8.57 C162.82 9.2 167.08 11.36 171.76 14.62 C179.5 18.96 188.23 20.78 196.74 23.12 C198.06 23.48 199.38 23.84 200.75 24.21 C201.95 24.54 203.15 24.86 204.39 25.19 C205.25 25.46 206.11 25.72 207 26 C207 26.33 207 26.66 207 27 C192.15 27.21 177.3 27.37 162.45 27.47 C155.55 27.51 148.65 27.58 141.75 27.68 C84.16 28.52 84.16 28.52 60.86 19.14 C56.6 17.44 52.24 16.08 47.87 14.67 C45.06 13.7 42.25 12.73 39.44 11.75 C27.57 7.69 15.85 4.23 3.55 1.77 C2.38 1.52 1.21 1.26 0 1 C0 0.67 0 0.34 0 0 Z " fill="#A77C36" transform="translate(830,1727)"/>
<path d="M0 0 C4 0.04 7.99 0.08 11.99 0.11 C21.66 0.2 31.33 0.33 41 0.5 C37.01 3.16 32.95 4.28 28.38 5.77 C27.42 6.08 26.45 6.4 25.45 6.72 C23.39 7.39 21.33 8.06 19.27 8.73 C16.2 9.73 13.12 10.73 10.05 11.74 C8.04 12.39 6.02 13.05 4.01 13.7 C2.21 14.29 0.41 14.87 -1.44 15.47 C-2.44 15.78 -3.44 16.08 -4.47 16.4 C-7.14 17.23 -9.8 18.13 -12.45 19.05 C-27.47 23.95 -41.2 24.29 -56.86 24.09 C-59.48 24.07 -62.09 24.07 -64.71 24.06 C-71.52 24.04 -78.33 23.98 -85.14 23.91 C-92.12 23.85 -99.1 23.82 -106.08 23.79 C-119.72 23.73 -133.36 23.63 -147 23.5 C-141.04 20.52 -134.56 19.1 -128.13 17.42 C-122.74 15.92 -119.23 14.67 -114.67 11.26 C-107.14 6.81 -99.61 8.28 -91.1 8.91 C-82.35 9.25 -74.96 8.07 -66.61 5.65 C-44.41 -0.74 -22.95 -0.41 0 0 Z " fill="#A77C36" transform="translate(1617,1730.5)"/>
<path d="M0 0 C1.32 0 2.64 0.01 4 0.01 C14.04 0.13 23.58 1.05 33.38 3.31 C34.69 3.6 36 3.89 37.35 4.19 C46.37 6.31 55.12 9.09 63.9 12.04 C73.71 14.83 83.63 14.43 93.74 14.36 C95.37 14.36 97 14.35 98.68 14.34 C102.22 14.33 105.75 14.31 109.29 14.3 C114.89 14.27 120.49 14.25 126.09 14.24 C142 14.19 157.92 14.15 173.83 14.07 C183.58 14.02 193.32 13.99 203.06 13.97 C206.77 13.96 210.48 13.94 214.19 13.92 C219.38 13.89 224.57 13.88 229.76 13.87 C230.52 13.87 230.52 13.87 234.38 13.83 C242.97 13.85 249.53 14.73 257.38 18.31 C257.38 18.64 257.38 18.97 257.38 19.31 C256.57 19.32 256.57 19.32 252.5 19.33 C237.23 19.39 221.97 19.46 206.7 19.55 C198.85 19.59 191.01 19.63 183.16 19.66 C175.57 19.69 167.97 19.73 160.38 19.78 C157.51 19.79 154.63 19.8 151.76 19.81 C128.38 19.87 104.92 20.46 82.38 27.31 C80.89 27.75 79.4 28.18 77.88 28.62 C70.53 32.17 65.07 38.57 59.48 44.38 C33.57 71.15 0.39 89.53 -37.58 90.38 C-69.13 90.54 -109.27 83.73 -136.62 67.31 C-135.62 62.31 -135.62 62.31 -131.42 59.47 C-129.56 58.43 -127.69 57.4 -125.81 56.38 C-118.02 51.96 -110.5 47.37 -103.19 42.19 C-102.36 41.6 -101.53 41.02 -100.68 40.41 C-95.73 36.88 -90.86 33.23 -86 29.56 C-61.06 11.17 -31.08 -0.14 0 0 Z " fill="#A77C36" transform="translate(840.625,1753.6875)"/>
<path d="M0 0 C1.57 0.39 3.15 0.78 4.77 1.18 C27.87 7.5 47.21 19.75 66.12 34.12 C77.24 42.57 89.02 49.68 101.4 56.11 C104 58 104 58 105 63 C100.96 67.85 94.52 69.04 88.69 70.81 C87.58 71.16 86.48 71.5 85.34 71.85 C81.9 72.91 78.45 73.96 75 75 C72.92 75.64 70.84 76.29 68.75 76.93 C31.84 88.2 -4.16 91.35 -41 78 C-42.13 77.61 -43.26 77.21 -44.43 76.8 C-66.96 68.12 -84.75 50.5 -100.39 32.67 C-105.73 27.21 -110.75 25.23 -118.12 23.38 C-119.7 22.97 -121.27 22.57 -122.88 22.15 C-134.76 19.48 -145.99 18.6 -158.15 18.38 C-159.96 18.34 -161.76 18.3 -163.63 18.26 C-187.71 17.82 -211.79 17.89 -235.88 17.93 C-242.23 17.94 -248.59 17.95 -254.95 17.95 C-267.3 17.96 -279.65 17.98 -292 18 C-281.41 10.94 -269.32 10.3 -256.99 10.51 C-256.18 10.52 -256.18 10.52 -252.05 10.53 C-248.54 10.55 -245.03 10.58 -241.51 10.62 C-235.93 10.69 -230.36 10.72 -224.78 10.74 C-211.93 10.81 -199.09 10.91 -186.24 11.03 C-173.52 11.14 -160.81 11.22 -148.09 11.28 C-142.62 11.31 -137.15 11.37 -131.69 11.44 C-100.14 11.67 -100.14 11.67 -85 6 C-57.78 -3.09 -28.22 -7.22 0 0 Z " fill="#A77C36" transform="translate(1695,1757)"/>
<path d="M0 0 C8.67 -0.35 17.35 -0.6 26.03 -0.77 C28.97 -0.84 31.91 -0.93 34.85 -1.06 C58.13 -2 72.1 2.13 90.66 15.99 C98.59 21.77 98.59 21.77 104 22 C107.81 19.12 107.81 19.12 112 15 C112.77 14.25 113.54 13.51 114.34 12.74 C120.69 6.52 120.69 6.52 122.91 2.78 C127.91 -1.72 133.32 -0.95 139.81 -0.88 C141.06 -0.91 142.3 -0.95 143.59 -1 C149.9 -0.99 154.05 -0.77 158.66 3.8 C159.76 5.18 160.86 6.57 162 8 C163.2 9.36 164.39 10.72 165.62 12.12 C167.77 14.59 169.9 17.06 172 19.56 C175 22 175 22 178.05 22.07 C183.5 20.6 187.64 17.59 192.19 14.38 C194.8 12.56 197.42 10.75 200.07 8.97 C201.94 7.71 203.8 6.43 205.64 5.13 C213.82 -0.24 220.31 -0.95 229.95 -0.68 C231.33 -0.67 232.72 -0.66 234.14 -0.65 C238.51 -0.61 242.88 -0.53 247.25 -0.44 C250.23 -0.4 253.21 -0.37 256.19 -0.34 C263.46 -0.27 270.73 -0.14 278 0 C273.59 3.31 268.94 5.55 264 7.94 C239.22 20.15 216.62 35.78 195.24 53.25 C193 55 193 55 189.38 56.94 C179.66 63.74 172.86 74.37 165.62 83.65 C162.54 87.59 159.39 91.47 156.19 95.32 C154.64 97.21 153.13 99.14 151.65 101.09 C150.88 102.09 150.11 103.09 149.31 104.12 C148.63 105.04 147.94 105.95 147.24 106.88 C145 109 145 109 142.06 110.1 C139 110 139 110 136.32 108.08 C135.45 107.14 134.58 106.21 133.69 105.25 C132.73 104.24 131.78 103.22 130.8 102.18 C127.49 98.42 124.3 94.6 121.18 90.68 C119.03 88.04 116.8 85.52 114.5 83 C111.39 79.58 108.41 76.09 105.5 72.5 C102.48 68.78 99.41 65.1 96.25 61.5 C95.9 61.1 95.9 61.1 94.14 59.09 C92 57 92 57 87 54 C79.48 49.06 72.09 43.94 64.78 38.68 C61.2 36.11 57.6 33.55 54 31 C52.88 30.21 51.76 29.41 50.61 28.59 C35.55 18.2 19.16 9.58 2.44 2.17 C1.63 1.79 0.83 1.4 0 1 C0 0.67 0 0.34 0 0 Z " fill="#A77C36" transform="translate(1113,1810)"/>
<path d="M0 0 C4.81 2.33 7.4 3.87 9.94 8.62 C10.29 9.74 10.64 10.85 11 12 C11.16 12.49 11.16 12.49 12 15 C9.45 18.92 6.54 21.23 2.59 23.67 C1.53 24.33 0.46 24.99 -0.63 25.67 C-1.76 26.36 -2.9 27.04 -4.06 27.75 C-5.23 28.46 -6.4 29.17 -7.6 29.9 C-26.57 41.29 -54.27 57.56 -77.2 53.2 C-83.51 51.21 -89.2 49.05 -93.62 44 C-95 41 -95 41 -95 36 C-90.97 31.97 -87.7 31.87 -82.12 30.75 C-56.29 25.16 -32.78 14.64 -10.04 1.29 C-6.41 -0.25 -3.9 -0.37 0 0 Z " fill="#A77C36" transform="translate(1168,1852)"/>
<path d="M0 0 C3.28 1.47 3.28 1.47 6.5 3.5 C14.14 8.12 21.95 12.14 30 16 C31.31 16.64 32.61 17.27 33.96 17.93 C50.51 25.66 68.25 31.66 86 36 C87 37 87 37 87 43 C80.39 49.96 74.31 53.05 64.81 53.56 C43.5 53.04 23.54 41.94 5 32.44 C4.48 32.17 4.48 32.17 1.85 30.83 C-5.5 27 -13.09 22.91 -19 17 C-17.75 10.73 -16.06 5.87 -11.25 1.5 C-7.17 -0.39 -4.48 -0.33 0 0 Z " fill="#A77C36" transform="translate(1343,1852)"/>
<path d="M0 0 C2.16 -0.01 4.33 -0.03 6.49 -0.06 C30.59 -0.39 52.81 3.93 76.11 9.8 C78.08 10.27 80.06 10.75 82.03 11.23 C83.9 11.69 85.76 12.16 87.68 12.64 C89.35 13.05 91.02 13.47 92.74 13.89 C96.86 15.3 96.86 15.3 100.86 19.3 C101.32 23.87 101.56 28.21 101.61 32.8 C101.62 33.45 101.62 33.45 101.69 36.79 C101.96 50.29 101.95 63.79 101.86 77.3 C100.54 77.3 99.22 77.3 97.86 77.3 C95.35 73.87 93.35 70.38 91.59 66.51 C82.63 46.94 65.36 36.22 45.81 28.75 C14.8 18.16 -18.62 19.76 -48.26 33.77 C-70.51 45.33 -86.12 66.84 -94.14 90.3 C-98.34 104.97 -99.49 119.45 -99.46 134.67 C-99.47 136.13 -99.49 137.59 -99.51 139.09 C-99.51 152.76 -97.69 165.88 -93.27 178.86 C-92.8 180.28 -92.33 181.71 -91.84 183.17 C-89.6 188.62 -86.76 193.35 -83 197.89 C-80.8 200.74 -79.74 203.47 -78.52 206.86 C-77.2 210.49 -75.88 213.83 -74.14 217.3 C-81.69 217.62 -89.23 217.85 -96.78 218.01 C-99.34 218.07 -101.91 218.16 -104.47 218.28 C-125.72 219.19 -125.72 219.19 -131.5 214.68 C-133.65 211.26 -134.94 208.14 -136.14 204.3 C-136.93 202.66 -137.72 201.02 -138.54 199.33 C-154.28 160.95 -155.83 122.24 -140.11 83.24 C-124.2 48.14 -94.41 23.28 -58.83 9.48 C-39.47 2.66 -20.45 0.07 0 0 Z " fill="#A77C36" transform="translate(363.144775390625,1938.704833984375)"/>
<path d="M0 0 C3.04 0.68 6.08 1.33 9.13 1.97 C23.51 5.16 23.51 5.16 28.03 9.68 C28.56 13.25 28.56 13.25 28.6 17.51 C28.63 19.05 28.66 20.59 28.69 22.18 C28.69 22.98 28.69 22.98 28.72 27.05 C28.76 30.23 28.8 33.4 28.85 36.58 C28.86 37.28 28.86 37.28 28.89 40.85 C29.01 44.24 29.43 47.35 30.03 50.68 C30.37 59.17 30.37 59.17 28.03 62.68 C26.71 62.35 25.39 62.02 24.03 61.68 C22.35 58.4 22.35 58.4 20.72 54.18 C13.33 36.52 1.09 28.14 -15.97 20.68 C-28.58 15.83 -40.53 13.3 -54.03 13.37 C-54.63 13.37 -54.63 13.37 -57.64 13.38 C-77.3 13.65 -94.9 18.02 -110.97 29.68 C-111.89 30.33 -112.8 30.99 -113.74 31.67 C-133.07 46.46 -142.58 69.11 -145.97 92.68 C-146.36 98.17 -146.4 103.62 -146.35 109.12 C-146.34 110.56 -146.33 112.01 -146.32 113.5 C-145.99 136.2 -140.37 156 -128.97 175.68 C-127.64 178.01 -126.3 180.34 -124.97 182.68 C-131.38 183.03 -137.78 183.28 -144.19 183.45 C-146.36 183.52 -148.54 183.61 -150.72 183.73 C-157.63 184.11 -164.17 184.23 -170.97 182.68 C-175.38 178.57 -177.14 174.34 -178.97 168.68 C-179.89 166.45 -180.8 164.22 -181.72 161.99 C-188.84 140.31 -196.09 105.62 -185.78 84.12 C-185.35 83.28 -184.91 82.45 -184.46 81.59 C-180.69 74.2 -177.35 66.51 -174.54 58.7 C-169.48 44.66 -160.5 36.69 -148.97 27.68 C-148.59 27.36 -148.59 27.36 -146.65 25.73 C-104.73 -9.3 -51.17 -11.48 0 0 Z " fill="#A77C36" transform="translate(2044.97216796875,1973.322265625)"/>
<path d="M0 0 C1.39 0.43 2.77 0.87 4.2 1.32 C34.68 11.8 60.15 31.97 75.25 60.62 C89.65 91.05 93.34 122.73 82.59 154.9 C78.82 164.61 74.36 174.06 69 183 C65.08 183.57 65.08 183.57 60.18 183.49 C58.43 183.47 56.68 183.46 54.87 183.44 C53.04 183.4 51.2 183.36 49.31 183.31 C48.39 183.3 48.39 183.3 43.72 183.24 C39.14 183.19 34.57 183.1 30 183 C30.47 182.03 30.95 181.05 31.43 180.05 C48.01 145.33 47.34 107.44 34.78 71.5 C26.13 49.44 11.33 30.74 -10.3 20.43 C-30.42 12.25 -53.09 10.99 -73.56 18.62 C-94.49 27.52 -108.41 42.65 -118 63 C-130.69 94.95 -130.64 132.07 -118 164.06 C-112.86 175.85 -112.86 175.85 -109 181 C-109 181.66 -109 182.32 -109 183 C-115.26 183.35 -121.52 183.6 -127.79 183.77 C-129.92 183.84 -132.04 183.93 -134.17 184.06 C-140.95 184.43 -147.34 184.54 -154 183 C-158.41 178.92 -160.16 174.64 -162 169 C-162.66 167.46 -163.31 165.92 -163.99 164.33 C-169.1 148.59 -171.67 133.55 -171 117 C-170.97 115.77 -170.94 114.54 -170.91 113.27 C-169.54 80.84 -153.96 50.47 -131 28 C-95.45 -2.58 -45.15 -14.72 0 0 Z " fill="#A77C36" transform="translate(696,1973)"/>
<path d="M0 0 C23.28 18.4 40.1 44.51 44.84 74.12 C47.83 104.64 42.49 134.77 25.28 160.59 C21.56 160.93 21.56 160.93 16.77 160.88 C15.06 160.87 13.35 160.86 11.59 160.85 C9.8 160.83 8 160.8 6.15 160.78 C4.35 160.76 2.55 160.75 0.69 160.74 C-3.78 160.7 -8.25 160.65 -12.72 160.59 C-12.06 158.94 -11.4 157.29 -10.72 155.59 C-3.47 137.14 0.68 119.71 0.59 99.84 C0.58 98.52 0.58 97.2 0.57 95.84 C0.46 86.16 -0.32 77 -2.72 67.59 C-3.06 66.19 -3.4 64.8 -3.75 63.36 C-10.19 39.27 -24.35 15.64 -46.05 2.56 C-67.12 -8.74 -90.52 -12.06 -113.72 -5.41 C-124.73 -1.98 -133 3.12 -141.72 10.59 C-142.18 10.96 -142.18 10.96 -144.51 12.85 C-150.69 18.05 -154.93 23.47 -158.72 30.59 C-159.06 31.22 -159.06 31.22 -160.75 34.38 C-175.4 64.26 -176.04 101.06 -166.72 132.59 C-163.24 142.19 -159.32 151.47 -154.72 160.59 C-160.75 160.79 -166.79 160.93 -172.82 161.03 C-174.87 161.07 -176.92 161.12 -178.97 161.19 C-181.92 161.29 -184.88 161.33 -187.83 161.37 C-188.72 161.39 -188.72 161.39 -193.21 161.5 C-197.72 160.59 -197.72 160.59 -200.72 156.77 C-201.38 155.39 -202.04 154.01 -202.72 152.59 C-203.34 151.36 -203.96 150.14 -204.6 148.87 C-216.97 121.1 -218.77 89.64 -209.72 60.59 C-209.42 59.49 -209.12 58.38 -208.82 57.24 C-199.7 25.88 -174.32 1.56 -146.49 -13.74 C-99.27 -37.08 -42.17 -31.35 0 0 Z " fill="#A77C36" transform="translate(1773.72265625,1995.41015625)"/>
<path d="M0 0 C3.23 0.01 6.47 0 9.7 -0.01 C22.6 -0.01 35.42 0.34 48.3 1.13 C48.3 2.45 48.3 3.77 48.3 5.13 C45.9 6.37 43.49 7.59 41.04 8.74 C33.72 12.46 29.34 17.43 26.33 25.03 C23.93 34.59 24.58 44.76 24.6 54.56 C24.58 57.08 24.57 59.59 24.55 62.11 C24.51 68.73 24.5 75.35 24.5 81.98 C24.49 88.58 24.45 95.18 24.41 101.79 C24.34 116.57 24.31 131.35 24.3 146.13 C24.3 147.19 24.3 148.25 24.3 149.35 C24.29 160.94 24.29 172.54 24.3 184.13 C11.43 184.13 -1.44 184.13 -14.7 184.13 C-14.7 181.81 -14.7 181.81 -14.73 170.06 C-14.76 154.71 -14.81 139.37 -14.88 124.02 C-14.92 114.72 -14.95 105.41 -14.97 96.11 C-14.98 87.13 -15.02 78.15 -15.07 69.17 C-15.08 65.74 -15.09 62.32 -15.09 58.89 C-15.09 54.09 -15.12 49.29 -15.15 44.49 C-15.15 43.08 -15.14 41.67 -15.14 40.21 C-15.24 30.67 -16.6 23.88 -21.89 15.76 C-26.59 11.36 -32.37 9.5 -38.25 7.06 C-39.39 6.42 -40.53 5.79 -41.7 5.13 C-41.37 3.81 -41.04 2.49 -40.7 1.13 C-37.32 0.53 -37.32 0.53 -32.69 0.39 C-30.96 0.33 -29.23 0.28 -27.45 0.22 C-18.3 0.08 -9.15 -0.02 0 0 Z " fill="#A77C36" transform="translate(855.697021484375,1971.86962890625)"/>
<path d="M0 0 C1.24 -0 2.49 -0.01 3.77 -0.01 C10.35 -0.03 16.94 -0.05 23.52 -0.06 C30.24 -0.07 36.97 -0.1 43.69 -0.14 C48.93 -0.17 54.17 -0.18 59.41 -0.18 C61.89 -0.18 64.36 -0.2 66.84 -0.22 C106.09 -0.49 146.93 8.33 175.86 36.59 C198.03 59.7 208.94 87.57 208.71 119.48 C208.52 128.01 207.51 135.99 205.36 144.24 C205.02 145.55 204.68 146.86 204.33 148.21 C201.48 158.14 197.37 167.21 192.36 176.24 C192.02 176.93 192.02 176.93 190.32 180.42 C187.36 184.24 187.36 184.24 183.03 185.15 C181.34 185.1 179.65 185.06 177.9 185.02 C176.99 185.01 176.99 185.01 172.35 184.94 C170.43 184.87 168.52 184.81 166.55 184.74 C164.61 184.7 162.68 184.67 160.69 184.63 C155.91 184.53 151.14 184.4 146.36 184.24 C147.59 181.77 148.85 179.31 150.13 176.87 C165.49 146.29 165.89 111.64 155.87 79.35 C151.82 68.32 145.98 59.1 138.36 50.24 C137.96 49.75 137.96 49.75 135.96 47.26 C121.01 29.93 96.43 21.44 74.36 18.24 C67.34 17.89 60.32 17.91 53.3 17.92 C49.97 17.93 46.65 17.9 43.32 17.88 C41.2 17.87 39.08 17.87 36.96 17.88 C35.05 17.87 33.13 17.87 31.16 17.87 C26.36 18.24 26.36 18.24 21.36 21.24 C17.33 28.52 17.96 36.29 18.02 44.38 C18.02 45.89 18.02 47.4 18.02 48.96 C18.02 53.95 18.04 58.94 18.07 63.93 C18.07 67.39 18.08 70.85 18.08 74.32 C18.09 83.42 18.12 92.53 18.15 101.64 C18.18 110.94 18.2 120.23 18.21 129.53 C18.25 147.77 18.3 166 18.36 184.24 C5.82 184.24 -6.72 184.24 -19.64 184.24 C-20.77 171.86 -20.77 171.86 -20.75 167.13 C-20.75 166.05 -20.75 164.97 -20.75 163.86 C-20.75 162.72 -20.74 161.58 -20.74 160.4 C-20.74 159.17 -20.74 157.93 -20.73 156.66 C-20.73 154 -20.72 151.34 -20.72 148.67 C-20.7 144.45 -20.7 140.22 -20.69 135.99 C-20.68 125.49 -20.65 114.99 -20.63 104.5 C-20.61 95.62 -20.59 86.74 -20.58 77.86 C-20.58 73.72 -20.57 69.58 -20.55 65.44 C-20.48 29.34 -20.48 29.34 -25.64 17.24 C-25.97 16.25 -26.3 15.26 -26.64 14.24 C-28.29 13.58 -29.94 12.92 -31.64 12.24 C-34.09 11.14 -36.53 10.02 -38.95 8.86 C-40.21 8.28 -41.46 7.69 -42.75 7.09 C-43.71 6.48 -44.66 5.87 -45.64 5.24 C-45.64 3.92 -45.64 2.6 -45.64 1.24 C-30.42 0.24 -15.25 0.04 0 0 Z " fill="#A77C36" transform="translate(1065.640625,1971.76171875)"/>
<path d="M0 0 C11.94 12.33 15.25 27.22 15.03 43.86 C14.07 59.65 6.99 72.76 -4.45 83.57 C-11.68 89.56 -19.65 94.22 -28.09 98.29 C-33.28 100.91 -33.28 100.91 -34.28 103.91 C-32.13 109.47 -28.4 113.79 -24.71 118.41 C-19.5 125.01 -14.5 131.71 -9.66 138.59 C-4.99 145.1 -0.12 151.5 5.01 157.66 C6.72 159.91 6.72 159.91 6.72 161.91 C0 162.41 -6.71 162.77 -13.44 163.01 C-15.73 163.11 -18.01 163.25 -20.29 163.42 C-38.65 164.79 -38.65 164.79 -44.65 160.03 C-49.56 154.59 -52.83 148.35 -56.28 141.91 C-58.36 138.86 -60.48 135.84 -62.65 132.85 C-65.33 129.08 -68 125.32 -70.59 121.48 C-76.19 113.32 -76.19 113.32 -82.28 111.91 C-86.86 111.51 -91.43 111.59 -96.03 111.6 C-97.27 111.59 -98.52 111.57 -99.8 111.55 C-102.96 111.55 -106.12 111.72 -109.28 111.91 C-112.23 116.34 -111.61 120.19 -111.69 125.49 C-111.71 126.53 -111.73 127.57 -111.75 128.64 C-111.81 131.96 -111.86 135.28 -111.9 138.6 C-111.94 140.85 -111.98 143.1 -112.02 145.35 C-112.12 150.87 -112.2 156.39 -112.28 161.91 C-125.81 161.91 -139.34 161.91 -153.28 161.91 C-153.29 157.08 -153.3 152.24 -153.31 147.26 C-153.34 131.29 -153.39 115.32 -153.46 99.35 C-153.5 89.67 -153.53 79.99 -153.55 70.3 C-153.56 60.96 -153.6 51.62 -153.65 42.27 C-153.66 38.71 -153.67 35.14 -153.67 31.58 C-153.67 26.58 -153.7 21.59 -153.73 16.6 C-153.73 15.12 -153.72 13.65 -153.72 12.13 C-153.79 4.76 -153.99 -0.79 -158.28 -7.09 C-163.78 -11.92 -169.71 -14.98 -176.28 -18.09 C-175.95 -19.08 -175.62 -20.07 -175.28 -21.09 C-170.31 -22.08 -165.94 -22.25 -160.88 -22.31 C-158.95 -22.33 -157.02 -22.35 -155.03 -22.38 C-152.91 -22.4 -150.8 -22.42 -148.69 -22.44 C-146.51 -22.46 -144.32 -22.48 -142.14 -22.51 C-137.56 -22.56 -132.97 -22.6 -128.38 -22.64 C-122.57 -22.7 -116.75 -22.76 -110.94 -22.83 C-106.42 -22.88 -101.91 -22.92 -97.39 -22.97 C-95.25 -22.99 -93.11 -23.01 -90.97 -23.04 C-58.21 -23.41 -25.5 -23.36 0 0 Z M-109.28 -3.09 C-111.88 2.12 -111.73 6.94 -111.88 12.64 C-111.92 13.83 -111.95 15.02 -111.99 16.24 C-112.37 29.55 -112.57 42.85 -112.63 56.17 C-112.64 58.95 -112.67 61.74 -112.71 64.53 C-112.76 68.62 -112.79 72.72 -112.8 76.81 C-112.82 78.06 -112.85 79.3 -112.87 80.59 C-112.85 89.1 -112.85 89.1 -109.99 93.17 C-100.11 99.51 -79.27 96.8 -67.96 94.85 C-53.24 91.22 -42.39 83.88 -34.4 71.04 C-27.42 58.12 -25.9 43.19 -29.46 28.85 C-35.07 13.58 -41.95 4.17 -56.61 -2.63 C-66.76 -6.36 -76.77 -6.54 -87.46 -6.59 C-88.92 -6.59 -90.38 -6.6 -91.88 -6.61 C-104.03 -6.46 -104.03 -6.46 -109.28 -3.09 Z " fill="#A77C36" transform="translate(1489.27734375,1994.0859375)"/>
<path d="M0 0 C3.1 0.01 6.21 -0 9.31 -0.01 C20.85 -0.01 32.33 0.27 43.84 1.13 C43.84 2.45 43.84 3.77 43.84 5.13 C40.96 6.99 40.96 6.99 37.15 8.88 C31.1 12.18 27.68 14.64 24.84 21.13 C23.24 26.61 22.59 31.47 22.6 37.17 C22.6 38.72 22.59 40.28 22.59 41.88 C22.6 43.54 22.6 45.19 22.61 46.9 C22.61 48.62 22.61 50.33 22.61 52.1 C22.62 55.72 22.62 59.33 22.64 62.95 C22.65 68.51 22.66 74.06 22.66 79.62 C22.66 83.13 22.67 86.64 22.67 90.15 C22.67 91.82 22.68 93.5 22.68 95.22 C22.68 96.75 22.69 98.29 22.7 99.87 C22.7 101.23 22.7 102.58 22.71 103.98 C22.84 107.13 22.84 107.13 23.84 109.13 C29.44 109.13 29.84 108.78 33.65 105.13 C34.52 104.31 35.39 103.48 36.29 102.63 C37.13 101.81 37.97 100.98 38.84 100.13 C40.22 98.79 41.61 97.45 43.03 96.07 C45.45 93.57 47.81 91.01 50.09 88.38 C54.14 83.8 58.41 79.53 62.78 75.26 C65 72.99 67.13 70.64 69.21 68.25 C72.95 64.01 76.9 60.12 80.97 56.19 C89.16 48.14 96.15 39.47 102.84 30.13 C103.55 29.19 104.25 28.25 104.97 27.27 C108.31 22.65 108.84 21.11 108.84 15.13 C106.52 11.09 104.02 9.6 100.03 7.01 C98.65 6.06 97.27 5.11 95.84 4.13 C96.17 3.14 96.5 2.15 96.84 1.13 C99.97 0.62 99.97 0.62 104.18 0.45 C104.95 0.42 104.95 0.42 108.87 0.26 C117.05 0.05 125.22 -0.01 133.4 0.01 C134.23 0 134.23 0 138.4 -0.01 C148.59 0 158.69 0.36 168.84 1.13 C168.84 2.45 168.84 3.77 168.84 5.13 C166.19 6.11 163.52 7.07 160.84 7.95 C157.13 9.41 154.25 11.59 151.22 14.15 C148.84 16.13 148.84 16.13 146.35 17.9 C135.14 25.95 125.7 35.89 116.02 45.67 C112.96 48.76 109.89 51.84 106.82 54.92 C104.85 56.9 102.88 58.88 100.91 60.86 C100.46 61.31 100.46 61.31 98.16 63.62 C93.2 68.64 88.46 73.79 83.84 79.13 C82.41 80.63 80.95 82.11 79.47 83.56 C78.73 84.29 77.99 85.02 77.23 85.78 C76.48 86.51 75.74 87.25 74.97 88.01 C66.98 95.86 66.98 95.86 65.84 98.13 C65.84 105.04 66.58 105.69 71.03 110.57 C72.12 111.79 73.22 113.01 74.34 114.27 C75.5 115.54 76.65 116.82 77.84 118.13 C80.08 120.71 82.31 123.29 84.53 125.88 C88.18 130.09 91.85 134.26 95.59 138.38 C98.56 141.65 101.39 145 104.15 148.44 C107.56 152.66 111.14 156.66 114.84 160.63 C121.78 168.07 128.23 175.64 133.84 184.13 C126.8 184.48 119.76 184.73 112.71 184.9 C110.32 184.97 107.93 185.06 105.54 185.19 C85.69 186.17 85.69 186.17 78.68 181.15 C75.65 177.62 73.24 174.11 70.84 170.13 C69.35 168.25 67.84 166.39 66.28 164.57 C65.56 163.69 64.85 162.8 64.11 161.9 C61.6 158.84 59.04 155.83 56.47 152.82 C52.6 148.27 48.87 143.65 45.22 138.94 C32.48 122.7 32.48 122.7 27.77 121.06 C26.8 121.08 25.84 121.11 24.84 121.13 C21.12 127.34 21.46 132.3 21.55 139.31 C21.55 140.59 21.56 141.87 21.56 143.19 C21.58 147.27 21.62 151.36 21.65 155.44 C21.67 158.21 21.68 160.99 21.7 163.76 C21.73 170.55 21.78 177.34 21.84 184.13 C9.3 184.13 -3.24 184.13 -16.16 184.13 C-16.17 182.25 -16.17 182.25 -16.22 172.75 C-16.29 160.35 -16.36 147.95 -16.45 135.55 C-16.5 128.03 -16.54 120.51 -16.58 112.99 C-16.62 105.73 -16.66 98.48 -16.72 91.22 C-16.73 88.45 -16.75 85.68 -16.76 82.91 C-16.78 79.04 -16.81 75.16 -16.84 71.29 C-16.84 70.14 -16.84 68.99 -16.85 67.81 C-16.9 62.53 -17.15 58.04 -19.16 53.13 C-19.41 50.04 -19.41 50.04 -19.43 46.77 C-19.45 45.57 -19.47 44.37 -19.49 43.14 C-19.52 40.65 -19.54 38.16 -19.55 35.67 C-19.71 27.23 -20.27 19.2 -26.42 12.76 C-27.22 12.27 -28.02 11.77 -28.85 11.26 C-29.71 10.71 -30.58 10.16 -31.47 9.6 C-35.27 7.52 -39.14 5.75 -43.16 4.13 C-42.83 3.14 -42.5 2.15 -42.16 1.13 C-38.32 0.62 -38.32 0.62 -33.11 0.45 C-31.2 0.39 -29.29 0.32 -27.32 0.26 C-18.21 0.05 -9.11 -0.02 0 0 Z " fill="#A77C36" transform="translate(2153.158203125,1971.86962890625)"/>
<path d="M0 0 C3.4 0.01 6.8 0 10.21 -0.01 C43.91 -0.02 43.91 -0.02 48.21 2.13 C48.21 2.79 48.21 3.45 48.21 4.13 C47.03 4.63 45.86 5.12 44.65 5.63 C38.39 9.16 34.87 14.13 32.13 20.74 C30.99 24.95 31 28.67 31.05 33.04 C31.06 34.75 31.07 36.46 31.08 38.23 C31.09 39.12 31.09 39.12 31.15 43.63 C31.18 47.16 31.21 50.69 31.24 54.22 C31.25 55.79 31.27 57.35 31.29 58.96 C31.21 63.13 31.21 63.13 30.21 69.13 C15.69 69.13 1.17 69.13 -13.79 69.13 C-13.98 48.26 -13.98 48.26 -14 41.73 C-14.29 23.83 -14.29 23.83 -19.79 16.13 C-26.17 11.52 -33.06 8.56 -40.3 5.52 C-41.12 5.06 -41.94 4.6 -42.79 4.13 C-42.79 3.14 -42.79 2.15 -42.79 1.13 C-28.51 0.24 -14.3 -0.03 0 0 Z " fill="#A77C36" transform="translate(440.791748046875,2086.86962890625)"/>
<g fill="#A77C36">
<path transform="translate(480.0 2410.0) scale(0.061652 -0.061652)" d="M1935 0H1255V92Q1343 92 1384.0 109.5Q1425 127 1437.5 160.5Q1450 194 1450 252V1102L938 0H877L358 1102V295Q358 231 362.5 197.0Q367 163 385.5 139.0Q404 115 444.0 103.5Q484 92 555 92V0H53V92Q125 92 164.5 104.0Q204 116 222.0 140.0Q240 164 244.0 197.5Q248 231 248 295V1063Q248 1149 239.0 1187.0Q230 1225 189.5 1244.5Q149 1264 53 1264V1356H549L999 399L1450 1356H1935V1264Q1810 1264 1773.5 1227.5Q1737 1191 1737 1104V252Q1737 197 1749.0 163.0Q1761 129 1804.5 110.5Q1848 92 1935 92Z"/>
<path transform="translate(627.4 2410.0) scale(0.061652 -0.061652)" d="M1268 446 1257 0H49V92Q174 92 210.0 128.0Q246 164 246 252V1104Q246 1162 234.5 1194.5Q223 1227 180.5 1245.5Q138 1264 49 1264V1356H1174L1192 1004H1100Q1069 1121 1028.5 1171.5Q988 1222 937.5 1233.5Q887 1245 786 1245H532V766H670Q741 766 776.0 778.5Q811 791 825.0 826.0Q839 861 844 936H940V485H848Q844 560 828.0 595.5Q812 631 777.5 643.0Q743 655 672 655H532V336Q532 256 536.0 219.0Q540 182 557.5 157.5Q575 133 614.5 122.0Q654 111 727 111H836Q905 111 967.5 128.5Q1030 146 1090.0 218.5Q1150 291 1174 446Z"/>
<path transform="translate(735.2 2410.0) scale(0.061652 -0.061652)" d="M1395 971H1300Q1287 1097 1244.5 1157.0Q1202 1217 1153.0 1231.0Q1104 1245 1040 1245H868V252Q868 193 880.0 160.5Q892 128 936.0 110.0Q980 92 1065 92V0H385V92Q510 92 546.0 128.0Q582 164 582 252V1245H438Q353 1245 297.0 1231.5Q241 1218 198.5 1157.5Q156 1097 150 971H55V1356H1395Z"/>
<path transform="translate(849.6 2410.0) scale(0.061652 -0.061652)" d="M1391 0H752V92Q833 92 870.0 103.5Q907 115 907 158Q907 188 895 219L831 379H391L358 291Q330 217 330 184Q330 124 376.5 108.0Q423 92 485 92V0H18V92Q74 92 113.0 113.0Q152 134 187.5 192.5Q223 251 264 358L655 1382H750L1163 326Q1208 214 1229.0 174.5Q1250 135 1287.0 113.5Q1324 92 1391 92ZM795 477 608 950 430 477Z"/>
<path transform="translate(961.4 2410.0) scale(0.061652 -0.061652)" d="M1266 453 1257 0H49V92Q174 92 210.0 128.0Q246 164 246 252V1104Q246 1163 234.0 1195.5Q222 1228 178.5 1246.0Q135 1264 49 1264V1356H731V1264Q646 1264 602.5 1247.0Q559 1230 545.5 1197.5Q532 1165 532 1104V324Q532 232 541.0 192.0Q550 152 590.0 131.5Q630 111 721 111Q836 111 922.5 128.5Q1009 146 1082.5 221.5Q1156 297 1174 453Z"/>
<path transform="translate(1192.9 2410.0) scale(0.061652 -0.061652)" d="M1268 446 1257 0H49V92Q174 92 210.0 128.0Q246 164 246 252V1104Q246 1162 234.5 1194.5Q223 1227 180.5 1245.5Q138 1264 49 1264V1356H1174L1192 1004H1100Q1069 1121 1028.5 1171.5Q988 1222 937.5 1233.5Q887 1245 786 1245H532V766H670Q741 766 776.0 778.5Q811 791 825.0 826.0Q839 861 844 936H940V485H848Q844 560 828.0 595.5Q812 631 777.5 643.0Q743 655 672 655H532V336Q532 256 536.0 219.0Q540 182 557.5 157.5Q575 133 614.5 122.0Q654 111 727 111H836Q905 111 967.5 128.5Q1030 146 1090.0 218.5Q1150 291 1174 446Z"/>
<path transform="translate(1300.7 2410.0) scale(0.061652 -0.061652)" d="M1626 0H834V92H897Q949 92 990.5 105.5Q1032 119 1032 166Q1032 189 979 260L760 549L549 303Q475 219 475 174Q475 137 499.5 118.5Q524 100 559.0 96.0Q594 92 653 92V0H57V92Q122 94 172.5 111.0Q223 128 286.0 182.5Q349 237 451 356L692 639L365 1069Q291 1165 258.0 1199.5Q225 1234 181.0 1249.0Q137 1264 57 1264V1356H797V1264H745Q688 1264 659.5 1255.5Q631 1247 631 1210Q631 1188 692 1102L881 858L1096 1110Q1125 1148 1134.0 1163.5Q1143 1179 1143 1202Q1143 1235 1118.0 1249.5Q1093 1264 1024 1264H977V1356H1538V1264Q1461 1264 1406.5 1239.5Q1352 1215 1310.5 1175.0Q1269 1135 1190 1044L948 766L1278 334Q1352 236 1399.5 186.0Q1447 136 1496.0 115.0Q1545 94 1626 92Z"/>
<path transform="translate(1429.7 2410.0) scale(0.061652 -0.061652)" d="M1386 14H1292Q1271 100 1223 168Q1147 89 1049.0 32.0Q951 -25 784 -25Q601 -25 444.5 64.0Q288 153 195.0 312.5Q102 472 102 672Q102 814 152.5 943.0Q203 1072 296.5 1170.0Q390 1268 519.5 1324.0Q649 1380 803 1380Q1057 1380 1223 1214Q1245 1257 1266 1339H1356L1372 840H1276Q1250 967 1182.0 1066.0Q1114 1165 1020.5 1217.5Q927 1270 825 1270Q711 1270 620.0 1207.5Q529 1145 477.5 1017.0Q426 889 426 698Q426 512 469.0 388.5Q512 265 575.5 202.0Q639 139 703.0 116.5Q767 94 823 94Q946 94 1044.5 160.0Q1143 226 1206.0 326.5Q1269 427 1290 526H1386Z"/>
<path transform="translate(1548.1 2410.0) scale(0.061652 -0.061652)" d="M1634 0H967V92Q1049 92 1091.0 110.0Q1133 128 1145.0 162.0Q1157 196 1157 252V659H528V252Q528 168 563.0 130.0Q598 92 723 92V0H51V92Q132 92 174.5 110.0Q217 128 229.5 161.5Q242 195 242 252V1104Q242 1161 230.0 1193.5Q218 1226 177.0 1245.0Q136 1264 51 1264V1356H723V1264Q599 1264 563.5 1227.0Q528 1190 528 1104V770H1157V1104Q1157 1161 1146.0 1193.5Q1135 1226 1094.0 1245.0Q1053 1264 967 1264V1356H1634V1264Q1549 1264 1508.0 1245.0Q1467 1226 1455.5 1193.5Q1444 1161 1444 1104V252Q1444 197 1454.5 164.5Q1465 132 1507.0 112.0Q1549 92 1634 92Z"/>
<path transform="translate(1677.1 2410.0) scale(0.061652 -0.061652)" d="M1391 0H752V92Q833 92 870.0 103.5Q907 115 907 158Q907 188 895 219L831 379H391L358 291Q330 217 330 184Q330 124 376.5 108.0Q423 92 485 92V0H18V92Q74 92 113.0 113.0Q152 134 187.5 192.5Q223 251 264 358L655 1382H750L1163 326Q1208 214 1229.0 174.5Q1250 135 1287.0 113.5Q1324 92 1391 92ZM795 477 608 950 430 477Z"/>
<path transform="translate(1788.9 2410.0) scale(0.061652 -0.061652)" d="M1524 1264Q1427 1264 1385.0 1244.5Q1343 1225 1333.0 1187.0Q1323 1149 1323 1063V-12H1231L344 1042V295Q344 210 354.5 171.5Q365 133 408.0 112.5Q451 92 547 92V0H43V92Q133 92 173.5 112.5Q214 133 223.5 171.5Q233 210 233 295V987Q233 1071 228.5 1113.0Q224 1155 207.0 1186.5Q190 1218 151.5 1237.5Q113 1257 45 1264V1356H440L1212 444V1063Q1212 1139 1201.5 1179.5Q1191 1220 1149.5 1242.0Q1108 1264 1018 1264V1356H1524Z"/>
<path transform="translate(1909.9 2410.0) scale(0.061652 -0.061652)" d="M1571 535Q1513 529 1483.5 516.5Q1454 504 1443.0 473.5Q1432 443 1432 379V61Q1287 61 1118 23Q996 -4 935.0 -14.5Q874 -25 791 -25Q571 -25 414.0 78.0Q257 181 178.5 343.0Q100 505 100 676Q100 872 193.0 1033.5Q286 1195 445.0 1287.5Q604 1380 793 1380Q1023 1380 1212 1221Q1235 1264 1249 1339H1346L1356 895H1264Q1243 996 1185.0 1080.0Q1127 1164 1040.5 1213.0Q954 1262 850 1262Q774 1262 701.0 1235.5Q628 1209 564.5 1143.5Q501 1078 462.5 965.0Q424 852 424 686Q424 544 454.0 413.0Q484 282 576.0 188.0Q668 94 836 94Q968 94 1036.0 135.5Q1104 177 1124.5 237.0Q1145 297 1145 371Q1145 441 1134.5 473.0Q1124 505 1085.5 520.0Q1047 535 967 535V627H1571Z"/>
<path transform="translate(2032.2 2410.0) scale(0.061652 -0.061652)" d="M1268 446 1257 0H49V92Q174 92 210.0 128.0Q246 164 246 252V1104Q246 1162 234.5 1194.5Q223 1227 180.5 1245.5Q138 1264 49 1264V1356H1174L1192 1004H1100Q1069 1121 1028.5 1171.5Q988 1222 937.5 1233.5Q887 1245 786 1245H532V766H670Q741 766 776.0 778.5Q811 791 825.0 826.0Q839 861 844 936H940V485H848Q844 560 828.0 595.5Q812 631 777.5 643.0Q743 655 672 655H532V336Q532 256 536.0 219.0Q540 182 557.5 157.5Q575 133 614.5 122.0Q654 111 727 111H836Q905 111 967.5 128.5Q1030 146 1090.0 218.5Q1150 291 1174 446Z"/>
<rect x="360" y="2372" width="68" height="14" rx="7.0"/>
<rect x="2142" y="2372" width="68" height="14" rx="7.0"/>
<rect x="484" y="2190" width="710" height="8"/>
<rect x="1314" y="2190" width="710" height="8"/>
<path d="M1254.0 2162 L1280.0 2194 L1254.0 2226 L1228.0 2194 Z"/>
<path d="M790 758 L790 746 L790 766 L791 786 L791 806 L791 826 L791 846 L791 866 L791 886 L791 906 L791 926 L791 946 L791 966 L791 986 L791 1006 L791 1026 L791 1046 L792 1066 L792 1086 L794 1106 L796 1126 L798 1146 L801 1166 L804 1186 L809 1206 L813 1226 L819 1246 L825 1266 L831 1286 L839 1306 L847 1326 L857 1346 L867 1366 L878 1386 L890 1406 L901 1426 L900 1446 L876 1466 L840 1486 L816 1506 L814 1526 L821 1546 L828 1566 L831 1586 L829 1606 L822 1626 L817 1646 L816 1666 L816 1686 L826 1706 L862 1726 L911 1746 L937 1766 L932 1786 L916 1806 L1250 1946 L1584 1806 L1568 1786 L1563 1766 L1589 1746 L1638 1726 L1674 1706 L1684 1686 L1684 1666 L1683 1646 L1678 1626 L1671 1606 L1669 1586 L1672 1566 L1679 1546 L1686 1526 L1684 1506 L1660 1486 L1624 1466 L1600 1446 L1599 1426 L1610 1406 L1622 1386 L1633 1366 L1643 1346 L1653 1326 L1661 1306 L1669 1286 L1675 1266 L1681 1246 L1687 1226 L1691 1206 L1696 1186 L1699 1166 L1702 1146 L1704 1126 L1706 1106 L1708 1086 L1708 1066 L1709 1046 L1709 1026 L1709 1006 L1709 986 L1709 966 L1709 946 L1709 926 L1709 906 L1709 886 L1709 866 L1709 846 L1709 826 L1709 806 L1709 786 L1710 766 L1710 746 L1710 758 Z" fill="none" stroke="#A77C36" stroke-width="14" stroke-linejoin="round"/>
</g>
</svg>
